<svg xmlns="http://www.w3.org/2000/svg" viewBox="0 0 60 60" xmlns:v="https://vecta.io/nano"><linearGradient id="A" gradientUnits="userSpaceOnUse" x1="29.066" y1="30" x2="30.934" y2="30"><stop offset="0" stop-color="#275b93"/><stop offset="1" stop-color="#5586c6"/></linearGradient><path d="M29.1 29.1H31V31h-1.9v-1.9z" fill="url(#A)"/><linearGradient id="B" gradientUnits="userSpaceOnUse" x1="29.068" y1="30" x2="30.932" y2="30"><stop offset="0" stop-color="#275b93"/><stop offset="1" stop-color="#5586c6"/></linearGradient><path d="M30.9 30.9H29V29h1.9v1.9z" fill="url(#B)"/><linearGradient id="C" gradientUnits="userSpaceOnUse" x1="1" y1="30" x2="59" y2="30"><stop offset="0" stop-color="#275b93"/><stop offset="1" stop-color="#5586c6"/></linearGradient><path d="M55.2 36.1c-3.3.8-6.5 1.7-9.7 2.5v.6 12.7c0 .8-.2 1.1-.9 1.3l-14 4.7c-.3.1-.8.1-1.1 0l-13.6-4.5c-.3-.1-.6-.2-1-.2H9.8v-1.9h4.8v-1.9H6.9v-1.9h7.7v-1.9H4v-1.9h10.6v-5l-6.9-1.8L2 35.4c-.7-.2-.9-.5-.9-1s.3-.8.9-1l9.8-2.5c.1 0 .1 0 .2-.1-.5-1.7-.3-3.5-.3-5.3V11c0-1 .3-1.3 1.3-1.3h6.8.7c0-1-.1-1.9 0-2.8.3-3.2 3.2-5.8 6.4-5.9H33c3.7 0 6.7 2.9 6.8 6.7v2h19.3v2H48.5v1.9h7.7v1.9h-7.7v1.9h4.8v1.9h-4.8v.6 8.3c0 .8-.1 1.7-.2 2.6 1 .3 2.1.6 3.3.8l6.5 1.7c.2 0 .4.1.5.2.2.3.5.6.5.9s-.3.6-.5.9c0 .1-.2.1-.2.1-1.1.3-1.1.3-1.1 1.6v12.7c0 .3.1.7.2 1l1.5 3c.2.4.2.8 0 1.2l-1.8 3.5c-.2.4-.5.7-1 .7s-.7-.3-.9-.7l-1.8-3.5c-.2-.4-.2-.8 0-1.2l1.5-3c.1-.3.2-.7.2-1V36.9v-.8zm-11.7 3c-.2 0-.4.1-.5.1l-12.4 3.2c-.3.1-.8.1-1.1 0L20.2 40l-3.7-.9v.3 11.8c0 .3.2.4.4.5l12.7 4.2c.3.1.6.1.8 0l7.4-2.4c1.9-.6 3.8-1.3 5.7-1.9V39.1zM13.6 19.3v.7 8.8c0 2 1.2 3.2 3.2 3.2h26.5c2 0 3.2-1.2 3.2-3.2V20v-.6c-1.2.9-2.4 1-3.8 1v2.8c0 .6-.4 1-1 1.1h-3.8a.94.94 0 0 1-1-1V21v-.5H23.4v2.7c0 .8-.3 1.2-1.2 1.2h-3.4c-.9 0-1.2-.4-1.2-1.2v-2.7c-1.6-.1-2.8-.3-4-1.2zm32.8-7.6H13.6v3.6c0 2 1.2 3.2 3.2 3.2h8.8.6v-2.6c0-.9.3-1.2 1.2-1.2h5.2c1.1 0 1.3.3 1.3 1.3v2.5h.6 8.8.7c1.2-.2 2.3-1.1 2.4-2.3.1-1.6 0-3.1 0-4.5zM54 34.4l-.1-.1c-2.2-.6-4.5-1.2-6.7-1.7-.1 0-.4 0-.5.1-.9.8-2 1.2-3.2 1.2H16.6c-1.2 0-2.3-.4-3.2-1.2-.1-.1-.4-.2-.6-.1L8 33.8c-.7.2-1.3.3-2 .5.2.1.4.2.5.2l22.9 5.9c.3.1.7.1 1.1 0 4.9-1.2 9.7-2.5 14.6-3.8l8.9-2.2zM37.7 9.7V7.9c0-2.8-2-4.9-4.9-4.9H27c-2.1 0-3.6 1-4.5 2.9-.6 1.2-.4 2.5-.4 3.8H24V8c0-1.9 1.2-3.1 3.1-3.1h5.4c1.9 0 3.1 1.2 3.1 3.1v1.7h2.1zm-3.9 0V7.6c0-.5-.4-.8-.9-.8h-5.8c-.5 0-.9.3-.9.8v2.1h7.6zm-1.9 8.7v-1.9h-3.8v1.9h3.8zm-12.5 3.8h1.9v-1.9h-1.9v1.9zm19.3 0h1.9v-1.9h-1.9v1.9zm17.4 30.3c-.3.6-.5 1.1-.8 1.6v.2c.2.5.5 1 .8 1.6.3-.6.5-1 .8-1.5 0-.1.1-.2 0-.3-.2-.5-.5-1-.8-1.6z" fill="url(#C)"/><linearGradient id="D" gradientUnits="userSpaceOnUse" x1="29.061" y1="30" x2="30.939" y2="30"><stop offset="0" stop-color="#275b93"/><stop offset="1" stop-color="#5586c6"/></linearGradient><path d="M30.9 29.1V31H29v-1.9h1.9z" fill="url(#D)"/></svg>