<svg xmlns="http://www.w3.org/2000/svg" viewBox="0 0 60.2 59.9" xmlns:v="https://vecta.io/nano"><linearGradient id="A" gradientUnits="userSpaceOnUse" x1=".1" y1="29.95" x2="60.1" y2="29.95"><stop offset="0" stop-color="#f12711"/><stop offset="1" stop-color="#f5af19"/></linearGradient><path d="M9.8 31c-1 .1-1.7-.3-2.2-1.1l-1.8-2.4c-.1-.2-.4-.3-.6-.3H3.3C1.5 27.2.2 26 .2 24.1V12.8 8.9C.2 7 1.4 5.8 3.3 5.8h21c1.8 0 3 1.2 3 3.1v9.8.7c2.9-.2 5.1.8 6.8 3.2.1-.1.2-.3.3-.4 1.4-1.9 3.2-2.9 5.5-2.9h2.9v-3.8c-1.5-.4-1.9-.9-1.9-2.5V9.9v-.1c-.1 0-.1 0-.2-.1-1-.2-1.6-.9-1.7-1.9V5.9c0-1.2.8-1.9 2-2h2.6.2V3c0-1.6 1.1-2.9 2.7-2.9H54c2.4.1 4.3 2.3 4.3 4.7v4.7a1.08 1.08 0 0 0 .3.7c1.1 1.4 1.7 3 1.6 4.7-.1 1.6-1.7 2.7-3.3 2.4-1.5-.2-2.7-1.7-2.4-3.2.2-1.5.6-3 1.8-4.1.1-.1.1-.3.1-.4V4.7c0-1.5-1.1-2.7-2.6-2.9h-.5-3.7c0 .6.1 1.3.1 1.9H51h1.6c1 0 1.8.8 1.9 1.8v1.8c0 1.3-.5 2-1.9 2.3v2 1.5c0 1.3-.6 2-1.9 2.2v3.9h3.8v3.9h3.8V56H38.9c-.3 1.3-1 2.4-2.1 3.1-.8.5-1.7.8-2.7.8-2.2-.1-3.9-1.4-4.7-3.9h-.5-10.6c-.3 0-.6.1-.8.3-.8.9-1.7 1.7-2.6 2.6l-1.2-.6c-.4-.2-.6-.1-.7.3s-.2 1-.5 1.2-.9.1-1.4.1H7.7c-.4 0-.6-.1-.6-.5l-.3-.9c-.1-.3-.3-.4-.6-.3l-1.2.6c-1.4-1-2.6-2.2-3.9-3.4l.6-1.2c.1-.3.1-.5-.3-.6h-.1C0 53.1 0 53.1 0 51.8v-3.5c0-.3.1-.5.4-.6l.9-.3c.3-.1.4-.3.3-.6L1 45.5 4.5 42c.1-.1.3-.1.5-.1.3.1.6.3 1 .5.3.1.5.1.6-.3h0c.2-.4.2-1 .5-1.2.5-.3 1.1-.2 1.5-.2h1.1l.1-9.7zm0-5.8h.7H24c1 0 1.3-.3 1.3-1.3V9.1c0-1.1-.3-1.3-1.3-1.3H9.4 3.3c-.8 0-1.2.4-1.2 1.1v15.2c0 .7.4 1.1 1.1 1.1H6c.3 0 .6.1.8.4l2.3 3.1c.1.2.4.2.6.4.1-.2.2-.4.2-.6-.1-1.1-.1-2.1-.1-3.3zm40.7-3.8v.7 11.6c0 .3 0 .5-.1.8l-1.5 4.6c-.4 1.1-1.2 1.7-2.2 1.7s-1.9-.6-2.2-1.7L43 34.7c-.1-.3-.2-.6-.2-1V22.1v-.6c-1.3 0-2.6-.1-3.8 0-2.4.3-4 2.4-4 4.8v22.5.4c5.8-3.6 11.6-3.6 17.4 0V21.4h-1.9zM33 49.3V49 26c0-.6-.2-1.2-.4-1.8-.8-1.9-2.9-3.2-5.3-2.8v1.8h3.8v9.6H17.6v-5.7h-1.9v.2 14.8c0 .2.1.4.3.6.5.6 1.1 1.1 1.7 1.7.9.9.9.9.4 2.1 0 .1-.1.2-.1.2 0 .2.1.4.2.5.4.2.7.3 1.2.1 2.8-1 5.6-1.1 8.5-.5 1.7.5 3.5 1.3 5.1 2.5zm-13.6 3.1c.3.7-.2.8-.7.9-.1 0-.3.1-.4.1-.3.1-.6.1-.5.5 0 .4.4.3.6.3h12 .7v.8a3.08 3.08 0 0 0 2.9 3.1c1.7 0 2.9-1.3 2.9-3.1v-.8h19.3v-29h-1.9v27.1l-34.9.1zm-3.3-6.5c-.1-.1-.1-.2-.2-.3l-.8-.8c-.7-.7-.7-.7-1.6-.3-.3.1-2.1-.6-2.2-.9-.4-.9-.4-.9-1.4-.9h-.3c-.8-.1-1.3 0-1.5.9 0 .3-1.9 1-2.2.9-.9-.4-.9-.4-1.6.3l-.4.4c-.6.6-.6.6-.3 1.4.2.3-.5 2.1-.9 2.3h0c-.9.3-.9.3-.9 1.3v.4c0 1 0 1 .9 1.4.3.1 1.1 1.9.9 2.1-.6.7-.3 1.2.4 1.7l.3.3c.7.7.7.7 1.6.3H6l2.1.9c.1 1 .7 1.1 1.5 1h.9c.3 0 .5-.1.5-.4.1-.6.4-.9 1-1a.76.76 0 0 0 .4-.2c.5-.4 1-.3 1.5 0 .2.2.4.1.6-.1l1.2-1.2c.2-.2.3-.4.1-.6-.4-.5-.4-1 0-1.5.1-.1.1-.2.1-.3.1-.6.5-.9 1.1-1.1.1 0 .3-.3.3-.4v-1.9a.76.76 0 0 0-.2-.4c-.7-.1-1.1-.6-1.2-1.3 0-.2-.2-.4-.3-.6 0-.2-.1-.5 0-.7.3-.3.4-.5.5-.7zm32.4-30.3h-3.8V33h3.8V15.6zm-19.4 9.6h-1.7c-.2 0-.4.2-.5.3-.6 1.1-1.5 1.6-2.7 1.6h-4.1-.5v3.8h9.6c-.1-1.8-.1-3.7-.1-5.7zm21.3-11.6V9.8h-7.7v3.8h7.7zM11.8 27.2v13.6c.7-.3.8.2.9.6.1.2.1.3.2.5.1.3.2.6.5.5.4-.1.3-.4.3-.6v-14-.5c-.7-.1-1.3-.1-1.9-.1zM52.4 5.9H40.8v1.9h11.6V5.9zm-1.9 44.5c-3-2.5-11.6-2.5-13.5 0h13.5zm-31 0h11.7c-.3-.2-.4-.3-.6-.4-3.3-1.8-6.7-2-10.2-1-1 .3-1 .4-.9 1.4zM45 35l1.2 3.5c0 .1.2.3.4.3.1 0 .3-.1.3-.2l1.2-3.5c-1-.1-2-.1-3.1-.1zm12.3-23.2c-.5.6-1.1 2.1-1 2.8 0 .5.5.9 1 .9s1-.4.9-1c-.1-.9-.4-1.8-.9-2.7zm-9.7-7.9c0-.7.2-1.3-.5-1.8-.3-.2-.7-.2-1.1 0-.6.5-.4 1.1-.4 1.7.7.1 1.3.1 2 .1z" fill="url(#A)"/><linearGradient id="B" gradientUnits="userSpaceOnUse" x1="9.818" y1="14.547" x2="17.533" y2="14.547"><stop offset="0" stop-color="#f12711"/><stop offset="1" stop-color="#f5af19"/></linearGradient><path d="M9.8 13.6c-.2-1.8 1.2-3.5 3.1-3.8 2.5-.4 4.7 1.4 4.5 3.9 0 .9-.4 1.7-1 2.3-.4.4-.7.8-1.2 1.2-.6.5-.8 1-.7 1.7v.5h-1.9v-2.2c0-.1.2-.3.3-.4l2-2c.7-.7.8-1.5.4-2.2s-1.3-1.1-2.2-.9c-.8.2-1.3.8-1.4 1.7v.2H9.8z" fill="url(#B)"/><linearGradient id="C" gradientUnits="userSpaceOnUse" x1="12.697" y1="22.325" x2="14.637" y2="22.325"><stop offset="0" stop-color="#f12711"/><stop offset="1" stop-color="#f5af19"/></linearGradient><path d="M13.7 21.4c.5 0 1 .4 1 1 0 .5-.4.9-1 .9-.5 0-1-.4-1-1 0-.5.4-.9 1-.9z" fill="url(#C)"/><linearGradient id="D" gradientUnits="userSpaceOnUse" x1="36.938" y1="43.625" x2="50.424" y2="43.625"><stop offset="0" stop-color="#f12711"/><stop offset="1" stop-color="#f5af19"/></linearGradient><path d="M36.9 44.6v-1.9h13.5v1.9H36.9z" fill="url(#D)"/><linearGradient id="E" gradientUnits="userSpaceOnUse" x1="36.953" y1="24.225" x2="40.746" y2="24.225"><stop offset="0" stop-color="#f12711"/><stop offset="1" stop-color="#f5af19"/></linearGradient><path d="M37 23.3h3.8v1.9H37v-1.9z" fill="url(#E)"/><linearGradient id="F" gradientUnits="userSpaceOnUse" x1="36.957" y1="28.125" x2="40.743" y2="28.125"><stop offset="0" stop-color="#f12711"/><stop offset="1" stop-color="#f5af19"/></linearGradient><path d="M40.7 29.1h-3.8v-1.9h3.8v1.9z" fill="url(#F)"/><linearGradient id="G" gradientUnits="userSpaceOnUse" x1="36.944" y1="35.925" x2="40.754" y2="35.925"><stop offset="0" stop-color="#f12711"/><stop offset="1" stop-color="#f5af19"/></linearGradient><path d="M40.8 35v1.9H37V35h3.8z" fill="url(#G)"/><linearGradient id="H" gradientUnits="userSpaceOnUse" x1="36.943" y1="39.725" x2="40.757" y2="39.725"><stop offset="0" stop-color="#f12711"/><stop offset="1" stop-color="#f5af19"/></linearGradient><path d="M40.8 38.8v1.9H37v-1.9h3.8z" fill="url(#H)"/><linearGradient id="I" gradientUnits="userSpaceOnUse" x1="36.944" y1="32.025" x2="40.738" y2="32.025"><stop offset="0" stop-color="#f12711"/><stop offset="1" stop-color="#f5af19"/></linearGradient><path d="M36.9 33v-1.9h3.8V33h-3.8z" fill="url(#I)"/><linearGradient id="J" gradientUnits="userSpaceOnUse" x1="17.56" y1="39.725" x2="31.06" y2="39.725"><stop offset="0" stop-color="#f12711"/><stop offset="1" stop-color="#f5af19"/></linearGradient><path d="M17.6 40.7v-1.9h13.5v1.9H17.6z" fill="url(#J)"/><linearGradient id="K" gradientUnits="userSpaceOnUse" x1="21.448" y1="35.825" x2="31.048" y2="35.825"><stop offset="0" stop-color="#f12711"/><stop offset="1" stop-color="#f5af19"/></linearGradient><path d="M21.4 36.8v-1.9H31v1.9h-9.6z" fill="url(#K)"/><linearGradient id="L" gradientUnits="userSpaceOnUse" x1="23.33" y1="43.625" x2="31.055" y2="43.625"><stop offset="0" stop-color="#f12711"/><stop offset="1" stop-color="#f5af19"/></linearGradient><path d="M31.1 42.7v1.9h-.5H24c-.5 0-.6-.2-.6-.6v-1.3h7.7z" fill="url(#L)"/><linearGradient id="M" gradientUnits="userSpaceOnUse" x1="17.568" y1="35.925" x2="19.446" y2="35.925"><stop offset="0" stop-color="#f12711"/><stop offset="1" stop-color="#f5af19"/></linearGradient><path d="M19.4 36.9h-1.9V35h1.9v1.9z" fill="url(#M)"/><linearGradient id="N" gradientUnits="userSpaceOnUse" x1="19.515" y1="43.625" x2="21.424" y2="43.625"><stop offset="0" stop-color="#f12711"/><stop offset="1" stop-color="#f5af19"/></linearGradient><path d="M19.5 44.6v-1.9h1.9v1.6c0 .1-.2.2-.3.3h-1.6z" fill="url(#N)"/><linearGradient id="O" gradientUnits="userSpaceOnUse" x1="4.95" y1="50.425" x2="14.638" y2="50.425"><stop offset="0" stop-color="#f12711"/><stop offset="1" stop-color="#f5af19"/></linearGradient><path d="M9.8 45.6c2.7 0 4.8 2.2 4.8 4.9 0 2.6-2.2 4.8-4.9 4.8-2.6 0-4.8-2.2-4.8-4.8a4.91 4.91 0 0 1 4.9-4.9zm0 1.9c-1.6 0-2.9 1.3-2.9 2.9s1.3 2.9 2.9 2.9 2.9-1.3 2.9-2.9-1.3-2.9-2.9-2.9z" fill="url(#O)"/></svg>