<?xml version="1.0" encoding="UTF-8"?>
<svg xmlns="http://www.w3.org/2000/svg" xmlns:xlink="http://www.w3.org/1999/xlink" width="60pt" height="59pt" viewBox="0 0 60 59" version="1.1">
<defs>
<linearGradient id="linear0" gradientUnits="userSpaceOnUse" x1="29" y1="62.1038" x2="29" y2="0.8962" gradientTransform="matrix(1.034483,0,0,0.936508,0,0)">
<stop offset="0" style="stop-color:rgb(57.647059%,15.294118%,56.078431%);stop-opacity:1;"/>
<stop offset="1" style="stop-color:rgb(97.254902%,84.705882%,0%);stop-opacity:1;"/>
</linearGradient>
</defs>
<g id="surface1">
<path style=" stroke:none;fill-rule:nonzero;fill:url(#linear0);" d="M 13.863281 0.84375 L 58.550781 0.84375 L 58.550781 51.882812 C 58.550781 55.347656 55.449219 58.15625 51.621094 58.15625 L 8.585938 58.15625 C 4.757812 58.15625 1.550781 55.347656 1.550781 51.789062 L 1.550781 22.945312 L 12.414062 22.945312 L 12.414062 0.84375 Z M 12.414062 55.347656 L 12.414062 25.847656 L 4.65625 25.847656 L 4.65625 51.882812 C 4.65625 53.753906 6.414062 55.347656 8.484375 55.347656 Z M 55.65625 3.371094 L 15.308594 3.371094 L 15.308594 55.535156 L 50.691406 55.535156 C 53.378906 55.535156 55.65625 53.566406 55.65625 51.039062 Z M 18.515625 5.433594 L 52.136719 5.433594 L 52.136719 11.332031 L 18.515625 11.332031 Z M 36.621094 15.078125 L 52.136719 15.078125 L 52.136719 24.253906 L 36.621094 24.253906 Z M 18.308594 38.117188 L 52.242188 38.117188 L 52.242188 39.894531 L 18.308594 39.894531 Z M 18.515625 31 L 52.136719 31 L 52.136719 32.777344 L 18.515625 32.777344 Z M 18.308594 34.558594 L 52.242188 34.558594 L 52.242188 36.335938 L 18.308594 36.335938 Z M 18.308594 45.234375 L 44.484375 45.234375 L 44.484375 47.011719 L 18.308594 47.011719 Z M 18.308594 41.675781 L 52.242188 41.675781 L 52.242188 43.453125 L 18.308594 43.453125 Z M 18.308594 19.011719 L 34.449219 19.011719 L 34.449219 20.789062 L 18.308594 20.789062 Z M 18.308594 15.453125 L 34.449219 15.453125 L 34.449219 17.230469 L 18.308594 17.230469 Z M 18.308594 26.128906 L 44.484375 26.128906 L 44.484375 27.90625 L 18.308594 27.90625 Z M 18.308594 22.570312 L 34.449219 22.570312 L 34.449219 24.347656 L 18.308594 24.347656 Z M 18.308594 22.570312 "/>
</g>
</svg>
