<?xml version="1.0" encoding="UTF-8"?>
<svg xmlns="http://www.w3.org/2000/svg" xmlns:xlink="http://www.w3.org/1999/xlink" width="60pt" height="59pt" viewBox="0 0 60 59" version="1.1">
<defs>
<linearGradient id="linear0" gradientUnits="userSpaceOnUse" x1="33" y1="0" x2="33" y2="11.9652" gradientTransform="matrix(0.909091,0,0,0.921875,0,0)">
<stop offset="0" style="stop-color:rgb(97.254902%,72.156863%,11.372549%);stop-opacity:1;"/>
<stop offset="1" style="stop-color:rgb(98.431373%,52.941176%,16.862745%);stop-opacity:1;"/>
</linearGradient>
<linearGradient id="linear1" gradientUnits="userSpaceOnUse" x1="13.8947" y1="8.887" x2="13.8947" y2="18.9217" gradientTransform="matrix(0.909091,0,0,0.921875,0,0)">
<stop offset="0" style="stop-color:rgb(97.254902%,72.156863%,11.372549%);stop-opacity:1;"/>
<stop offset="1" style="stop-color:rgb(98.431373%,52.941176%,16.862745%);stop-opacity:1;"/>
</linearGradient>
<linearGradient id="linear2" gradientUnits="userSpaceOnUse" x1="5.9747" y1="30.4" x2="5.9747" y2="35.687" gradientTransform="matrix(0.909091,0,0,0.921875,0,0)">
<stop offset="0" style="stop-color:rgb(97.254902%,72.156863%,11.372549%);stop-opacity:1;"/>
<stop offset="1" style="stop-color:rgb(98.431373%,52.941176%,16.862745%);stop-opacity:1;"/>
</linearGradient>
<linearGradient id="linear3" gradientUnits="userSpaceOnUse" x1="60.0253" y1="30.4" x2="60.0253" y2="35.687" gradientTransform="matrix(0.909091,0,0,0.921875,0,0)">
<stop offset="0" style="stop-color:rgb(97.254902%,72.156863%,11.372549%);stop-opacity:1;"/>
<stop offset="1" style="stop-color:rgb(98.431373%,52.941176%,16.862745%);stop-opacity:1;"/>
</linearGradient>
<linearGradient id="linear4" gradientUnits="userSpaceOnUse" x1="52.1053" y1="8.887" x2="52.1053" y2="18.9217" gradientTransform="matrix(0.909091,0,0,0.921875,0,0)">
<stop offset="0" style="stop-color:rgb(97.254902%,72.156863%,11.372549%);stop-opacity:1;"/>
<stop offset="1" style="stop-color:rgb(98.431373%,52.941176%,16.862745%);stop-opacity:1;"/>
</linearGradient>
<linearGradient id="linear5" gradientUnits="userSpaceOnUse" x1="32.955" y1="16.7652" x2="32.955" y2="50.713" gradientTransform="matrix(0.909091,0,0,0.921875,0,0)">
<stop offset="0" style="stop-color:rgb(97.254902%,72.156863%,11.372549%);stop-opacity:1;"/>
<stop offset="1" style="stop-color:rgb(98.431373%,52.941176%,16.862745%);stop-opacity:1;"/>
</linearGradient>
<linearGradient id="linear6" gradientUnits="userSpaceOnUse" x1="33" y1="55.0956" x2="33" y2="64" gradientTransform="matrix(0.909091,0,0,0.921875,0,0)">
<stop offset="0" style="stop-color:rgb(97.254902%,72.156863%,11.372549%);stop-opacity:1;"/>
<stop offset="1" style="stop-color:rgb(98.431373%,52.941176%,16.862745%);stop-opacity:1;"/>
</linearGradient>
</defs>
<g id="surface1">
<path style=" stroke:none;fill-rule:nonzero;fill:url(#linear0);" d="M 30 11.0625 C 31.363281 11.0625 32.363281 9.957031 32.363281 8.664062 L 32.363281 2.398438 C 32.363281 1.105469 31.363281 0 30 0 C 28.636719 0 27.636719 1.105469 27.636719 2.398438 L 27.636719 8.574219 C 27.636719 9.957031 28.636719 11.0625 30 11.0625 Z M 30 11.0625 "/>
<path style=" stroke:none;fill-rule:nonzero;fill:url(#linear1);" d="M 17.183594 15.027344 C 17.183594 14.382812 16.910156 13.734375 16.453125 13.273438 L 12.183594 8.941406 C 11.273438 8.019531 9.726562 8.019531 8.726562 8.941406 C 8.273438 9.402344 8 10.046875 8 10.695312 C 8 11.339844 8.273438 11.984375 8.726562 12.445312 L 13 16.777344 C 13.453125 17.238281 14.089844 17.515625 14.726562 17.515625 C 15.363281 17.515625 16 17.238281 16.453125 16.777344 C 16.910156 16.316406 17.183594 15.671875 17.183594 15.027344 Z M 17.183594 15.027344 "/>
<path style=" stroke:none;fill-rule:nonzero;fill:url(#linear2);" d="M 8.453125 28.023438 L 2.363281 28.023438 C 1.089844 28.023438 0 29.132812 0 30.421875 C 0 31.804688 1.089844 32.820312 2.363281 32.820312 L 8.453125 32.820312 C 9.816406 32.820312 10.816406 31.710938 10.816406 30.421875 C 10.816406 29.132812 9.816406 28.023438 8.453125 28.023438 Z M 8.453125 28.023438 "/>
<path style=" stroke:none;fill-rule:nonzero;fill:url(#linear3);" d="M 57.636719 28.023438 L 51.546875 28.023438 C 50.183594 28.023438 49.183594 29.132812 49.183594 30.421875 C 49.183594 31.804688 50.273438 32.820312 51.546875 32.820312 L 57.636719 32.820312 C 59 32.820312 60 31.710938 60 30.421875 C 60 29.132812 58.910156 28.023438 57.636719 28.023438 Z M 57.636719 28.023438 "/>
<path style=" stroke:none;fill-rule:nonzero;fill:url(#linear4);" d="M 51.910156 10.601562 C 51.910156 9.957031 51.636719 9.3125 51.183594 8.851562 C 50.273438 7.929688 48.726562 7.929688 47.726562 8.851562 L 43.453125 13.183594 C 43 13.644531 42.726562 14.289062 42.726562 14.933594 C 42.726562 15.578125 43 16.226562 43.453125 16.6875 C 43.910156 17.148438 44.546875 17.421875 45.183594 17.421875 C 45.816406 17.421875 46.453125 17.148438 46.910156 16.6875 L 51.183594 12.351562 C 51.636719 11.890625 51.910156 11.246094 51.910156 10.601562 Z M 51.910156 10.601562 "/>
<path style=" stroke:none;fill-rule:nonzero;fill:url(#linear5);" d="M 39.183594 18.714844 C 36.546875 16.59375 33.273438 15.488281 29.910156 15.488281 C 28.726562 15.488281 27.546875 15.578125 26.363281 15.949219 C 21.089844 17.238281 16.816406 21.480469 15.546875 26.828125 C 14.089844 32.820312 16.089844 38.902344 20.910156 42.589844 C 21.546875 43.144531 21.910156 43.972656 21.910156 44.894531 L 21.910156 46.832031 L 38 46.832031 L 38 44.804688 C 38 43.882812 38.363281 43.050781 38.910156 42.589844 C 42.636719 39.734375 44.816406 35.308594 44.816406 30.699219 C 44.910156 25.90625 42.816406 21.570312 39.183594 18.714844 Z M 36.089844 29.40625 L 30.183594 35.398438 C 29.816406 35.769531 29.273438 35.953125 28.816406 35.953125 C 28.273438 35.953125 27.816406 35.769531 27.453125 35.398438 L 24 32.082031 C 23.273438 31.34375 23.273438 30.054688 24 29.222656 C 24.726562 28.484375 26 28.484375 26.816406 29.222656 L 28.816406 31.25 L 33.363281 26.640625 C 34.089844 25.90625 35.363281 25.90625 36.183594 26.640625 C 36.910156 27.289062 36.910156 28.578125 36.089844 29.40625 Z M 36.089844 29.40625 "/>
<path style=" stroke:none;fill-rule:nonzero;fill:url(#linear6);" d="M 22 53.835938 C 22 55.035156 22.910156 56.050781 24.183594 56.050781 L 26.910156 56.050781 L 27.183594 56.789062 C 27.453125 58.078125 28.636719 59 30 59 C 31.363281 59 32.546875 58.078125 32.910156 56.789062 L 33.183594 56.050781 L 35.910156 56.050781 C 37.089844 56.050781 38.089844 55.128906 38.089844 53.835938 L 38.089844 50.796875 L 22 50.796875 Z M 22 53.835938 "/>
</g>
</svg>
