<svg xmlns="http://www.w3.org/2000/svg" viewBox="0 0 120 54" fill="#fff" xmlns:v="https://vecta.io/nano"><path d="M83.6 38.5h-4.4c-.1-.1-.1-.2-.2-.3l-5.4-10.1c-.1-.2-.2-.3-.3-.5s-.3-.4-.5-.5-.4-.1-.5.1-.1.4-.2.5v.3 9.9.4c-.3.1-4.2.1-4.6 0V38 25.3c0-1.3.6-2.3 1.6-3.1.3-.2.6-.5 1-.6 1.7-.9 3.7-.4 4.8.9.7.8 1.3 1.6 1.7 2.5l4.2 8c.1.2.2.3.3.5.1-.1.1-.2.2-.3l4.7-8.7c.4-.7.8-1.4 1.3-2 1.7-2 4.8-1.9 6.5.1.7.9 1.1 1.8 1.1 3V38v.4h-4.6V38v-9.6-.4c0-.4-.2-.7-.5-.7-.3-.1-.6.1-.8.5l-1.1 2.1-4.3 8.3c.1.1 0 .2 0 .3zm13.6-12.8v-4.1h.2.3 15.5c1.7 0 3 .6 4.1 1.9.8.9 1.3 1.9 1.5 3 0 .2.1.4.1.5v11.3.3h-4.8v-1.1l-.2.2c-.5.5-1.1.8-1.9.8H99.4c-.9 0-1.6-.4-2.1-1.2-.2-.3-.3-.6-.3-.9v-.6V31c0-.5.1-1 .3-1.5.4-1 1.2-1.6 2.4-1.6h11.8c1 0 1.8.3 2.5 1.1l.1.1h.1v-1.3c0-.2 0-.5-.1-.7-.4-.9-1-1.4-2-1.4h-.5-13.9-.5zm10.3 8.7h4.6a1 1 0 0 0 1-.6c.3-.4.2-.8-.1-1.2-.3-.3-.7-.5-1.2-.5H103h-.3c-.2.1-.4.1-.5.2-.4.3-.5.9-.3 1.4.2.4.5.7 1.1.7h4.5zM26 38.5h-4.6c-.1-.2-.1-9.9 0-10.5h.4 13.8a1.69 1.69 0 0 0 1-.3c.4-.3.5-.7.4-1.2s-.3-.7-.8-.8c-.3-.1-.5-.1-.8-.1H21.7h-.5v-4h.4 13.2 3.7c1.8-.1 3.1 1.5 3.1 3.1v4.5c0 .6-.1 1.3-.6 1.8-.3.3-.6.6-1 .7l-1.4.3c-.2 0-.4.1-.7.1.1.1.1.2.2.3l5.1 5.8c1.6 1.9 3.2 3.7 4.9 5.6.1.1.1.2.3.3H48h-5.2c-.3 0-.4-.1-.6-.3l-3.8-4.3c-2.1-2.3-4.1-4.7-6.2-7-.2-.2-.4-.3-.7-.3h-5.1-.4v6.3zm26.1-16.9c.1 1.4-.1 2.8-.6 4.1h-.6c-.3 0-.5.1-.8.2-.6.2-1 .6-1.4 1-.3.3-.4.7-.4 1.2v3.3c0 .7.2 1.3.6 1.9.3.5.8.8 1.4.8h.5 7.7c.4 0 .7 0 1.1-.2.8-.3 1.2-.8 1.3-1.6v-.6-3.5c0-.6-.2-1.2-.6-1.7-.5-.6-1.2-.8-2-.9h-.8-.4c.9-1.3 1.7-2.6 2.2-4.1.6 0 1.2-.1 1.8.1 1.6.4 2.8 1.3 3.7 2.7.4.7.6 1.4.6 2.1v1.2V33c0 2.3-1.1 3.9-3.1 5-.5.3-1 .4-1.6.4H48.8c-2.1 0-3.6-1-4.7-2.8-.5-.9-.7-1.8-.7-2.8V27c0-1.9.8-3.4 2.2-4.5.5-.4 1.1-.8 1.8-.9.2 0 .4-.1.6-.1h3.5c.4.1.5.1.6.1zm-33.2 4h-.4-10c-1.2 0-2.3.7-2.7 1.8-.1.2-.1.4-.1.6v4c0 .9.7 2 2 2.3h.5 10.4.4v4.2h-.3H6.3a5.27 5.27 0 0 1-5.2-4.2c-.1-.3-.1-.7-.1-1v-6.6c0-1.1.3-2.1 1-3 .6-.8 1.3-1.4 2.2-1.8.4-.2.8-.3 1.2-.3h13.1.4v4zM54.2 1.3c.1.1.2.2.3.4 2 2.4 3.5 5.1 4.4 8.1.6 2.1.8 4.2.7 6.4-.1 2-.5 3.9-1.2 5.7-1.1 2.7-2.8 4.8-5.2 6.4-.6.4-1.3.8-2 1-.1 0-.2.1-.4.1.1-.2.1-.3.2-.4.7-1.2 1.2-2.5 1.5-3.8a12.59 12.59 0 0 0 0-6.1c-.7-2.5-2.3-4-4.8-4.7-.1 0-.2-.1-.4-.1.2-.1.2-.2.3-.2.6-.3 1.2-.4 1.9-.3.9.1 1.7.4 2.5.7l1.8.6c.4.1.8.2 1.2.1.5-.1.8-.3 1.1-.7.2-.3.4-.7.4-1.1.2-.7.2-1.4.2-2.1-.1-1.7-.4-3.4-.8-5s-1-3.2-1.6-4.7c-.1-.1-.1-.2-.1-.3zm-6.8 7.4c0-1.1.4-2.1 1.1-2.9 1.5-1.7 4-1.7 5.6 0s1.4 4.5-.3 6c-1.9 1.7-4.7 1.1-5.9-1.2-.4-.5-.5-1.2-.5-1.9zM93 43.5h-1.2V46H93c1 0 1.5-.4 1.5-1.2s-.5-1.3-1.5-1.3zm-26.5 4.3H69l-1.2-3.6zm-17.2-7.6v12.5H119V40.2H49.3zm4.9 8.3c.4.5 1 .7 1.7.7.5 0 1-.1 1.4-.4s.7-.6.9-1h2.6a4.16 4.16 0 0 1-1.6 2.6c-.8.7-1.9 1-3.2 1-1 0-1.8-.2-2.6-.6a4.62 4.62 0 0 1-1.7-1.7c-.4-.7-.6-1.6-.6-2.6s.2-1.8.6-2.6a4.62 4.62 0 0 1 1.7-1.7c.7-.4 1.6-.6 2.6-.6 1.3 0 2.3.3 3.2 1a4.16 4.16 0 0 1 1.6 2.6h-2.6c-.2-.4-.5-.8-.9-1.1s-.9-.4-1.4-.4c-.7 0-1.3.3-1.7.8a3.22 3.22 0 0 0 0 4zm16.1 2.8l-.6-1.8H66l-.6 1.8h-2.5l3.7-9.6h2.8l3.7 9.6h-2.8zm16.1 0H84v-6l-2.2 6h-2.1l-2.2-6v6h-2.4v-9.6h3l2.7 6.7 2.6-6.7h2.9v9.6zm10.1-4.9c-.3.5-.7.8-1.2 1.1s-1.2.4-2 .4h-1.5v3.4h-2.4v-9.7h3.9c1.2 0 2.1.3 2.7.9s.9 1.3.9 2.3c0 .6-.1 1.1-.4 1.6zm11.2.8c0 .9-.2 1.7-.6 2.3s-.9 1.1-1.5 1.4-1.4.5-2.2.5a4.65 4.65 0 0 1-2.1-.5 3.16 3.16 0 0 1-1.4-1.4c-.3-.6-.5-1.4-.5-2.3v-5.6h2.4v5.6c0 .6.1 1.1.4 1.5.3.3.7.5 1.3.5s1-.2 1.3-.5.4-.8.4-1.5v-5.6h2.4v5.6zm9.8 2.8c-.3.4-.7.8-1.2 1-.5.3-1.2.4-1.9.4-1.1 0-2-.3-2.8-.8-.7-.5-1.1-1.3-1.2-2.2h2.6c0 .4.2.7.4.9s.5.3.9.3c.3 0 .6-.1.7-.2.2-.2.3-.4.3-.7 0-.2-.1-.5-.2-.6-.2-.2-.4-.3-.6-.4s-.6-.2-1-.4a11.64 11.64 0 0 1-1.5-.6c-.4-.2-.7-.5-1-.9s-.4-.9-.4-1.5.2-1.1.5-1.5.7-.7 1.3-1c.5-.2 1.1-.3 1.8-.3 1.1 0 2 .3 2.7.8s1 1.2 1.1 2.1h-2.6c0-.3-.2-.6-.4-.8s-.5-.3-.8-.3-.5.1-.7.2-.3.4-.3.6.1.4.2.6c.2.2.4.3.6.4s.6.2 1 .4l1.6.6c.4.2.8.5 1 .9.3.4.4.9.4 1.5a5.27 5.27 0 0 1-.5 1.5zM1.3 40.2h32.4c.2 0 .3-.1.3-.3v-2.8c0-.3.4-.4.6-.2l7 7.6c.1.1.1.3 0 .4l-7.1 7.4c-.2.2-.5 0-.5-.3v-2.8c0-.2-.1-.3-.3-.3H1.3c-.2 0-.3-.1-.3-.3v-8c0-.2.1-.4.3-.4z"/></svg>