<svg xmlns="http://www.w3.org/2000/svg" viewBox="0 0 62 44" xmlns:v="https://vecta.io/nano"><linearGradient id="A" gradientUnits="userSpaceOnUse" x1="7.902" y1="28.59" x2="51.79" y2="28.59"><stop offset="0" stop-color="#8e2de2"/><stop offset="1" stop-color="#4a00e0"/></linearGradient><path d="M37.1 13.5c.1.4.1.7.1 1.1v1h3.2v-2h-3.3zm12.6 11.2v11.6c0 .2-.2.4-.4.4H10.4c-.2 0-.4-.2-.4-.4V18.9c-.7 0-1.4 0-2.1-.1v22.4c0 1.3 1.1 2.4 2.5 2.4h38.8c1.4 0 2.5-1.1 2.5-2.4V22.6l-2 2.1zM13.3 39.8l-1.8 1c-.1.1-.3 0-.3-.2v-2c0-.2.2-.3.3-.2l1.8 1c.2.1.2.3 0 .4zm33.9.5H16.1a.68.68 0 1 1 0-1.4h31.1a.68.68 0 1 1 0 1.4zM21.3 15.6v-1c0-.4 0-.7.1-1.1h-2.8c-.2.3-.3.6-.5.8l.2 1.2h3z" fill="url(#A)"/><linearGradient id="B" gradientUnits="userSpaceOnUse" x1="19.576" y1="21.839" x2="38.873" y2="21.839"><stop offset="0" stop-color="#8e2de2"/><stop offset="1" stop-color="#4a00e0"/></linearGradient><path d="M35.4 25.5V14.6c0-3.3-2.8-6-6.2-6s-6.2 2.7-6.2 6v10.9c-2 .8-3.4 2.7-3.4 4.9V35h19.3v-4.6c0-2.2-1.5-4.1-3.5-4.9zm-6.2 3c-1.9 0-3.4-1.4-3.6-3.1.7-.1 1.4-.5 1.8-1.2.6.2 1.2.3 1.8.3s1.2-.1 1.8-.3c.4.6 1 1.1 1.8 1.2-.2 1.8-1.7 3.1-3.6 3.1zm4-8.6c0 2.1-1.8 3.8-4 3.8s-4-1.7-4-3.8l.1-2.8v-.2c.5-1.4 2.1-2 3.3-1.4 1 .4 2.4 2.1 4.7 1l-.1 3.4z" fill="url(#B)"/><linearGradient id="C" gradientUnits="userSpaceOnUse" x1="30.401" y1="18.97" x2="32.133" y2="18.97"><stop offset="0" stop-color="#8e2de2"/><stop offset="1" stop-color="#4a00e0"/></linearGradient><path d="M32.1 19c0 .5-.4.8-.9.8s-.9-.4-.9-.8.4-.8.9-.8c.5-.1.9.3.9.8z" fill="url(#C)"/><linearGradient id="D" gradientUnits="userSpaceOnUse" x1="26.31" y1="18.97" x2="28.041" y2="18.97"><stop offset="0" stop-color="#8e2de2"/><stop offset="1" stop-color="#4a00e0"/></linearGradient><path d="M28 19c0 .5-.4.8-.9.8s-.9-.4-.9-.8.4-.8.9-.8c.6-.1.9.3.9.8z" fill="url(#D)"/><linearGradient id="E" gradientUnits="userSpaceOnUse" x1="27.598" y1="21.746" x2="30.844" y2="21.746"><stop offset="0" stop-color="#8e2de2"/><stop offset="1" stop-color="#4a00e0"/></linearGradient><path d="M27.6 21.2c.2.7.9 1.1 1.6 1.1.8 0 1.4-.5 1.6-1.1h-3.2z" fill="url(#E)"/><linearGradient id="F" gradientUnits="userSpaceOnUse" x1="42.081" y1="17.381" x2="61.5" y2="17.381"><stop offset="0" stop-color="#8e2de2"/><stop offset="1" stop-color="#4a00e0"/></linearGradient><path d="M59.5 8.8H44.1c-1.1 0-2 .9-2 1.9V19c0 1.1.9 1.9 2 1.9h1v4.4c0 .5.7.8 1 .4l5.1-4.9h8.4c1.1 0 2-.9 2-1.9v-8.2a2.16 2.16 0 0 0-2.1-1.9zm-2 9.5H46a.65.65 0 0 1-.6-.6.65.65 0 0 1 .6-.6h11.5a.65.65 0 0 1 .6.6c.1.4-.2.6-.6.6zm0-2.9H46a.65.65 0 0 1-.6-.6.65.65 0 0 1 .6-.6h11.5a.65.65 0 0 1 .6.6c.1.4-.2.6-.6.6zm0-2.8H46a.65.65 0 0 1-.6-.6.65.65 0 0 1 .6-.6h11.5a.65.65 0 0 1 .6.6c.1.3-.2.6-.6.6z" fill="url(#F)"/><linearGradient id="G" gradientUnits="userSpaceOnUse" x1=".5" y1="10.463" x2="18.042" y2="10.463"><stop offset="0" stop-color="#8e2de2"/><stop offset="1" stop-color="#4a00e0"/></linearGradient><path d="M16.3 14.7l-.1-.8c1.1-1.4 1.8-3.2 1.8-5.1C18 4.1 14.1.4 9.2.4S.4 4.2.4 8.8c0 3 1.6 5.7 4.1 7.2 1.9 1.2 4.3 1.5 6.3 1.1l5.4 3.4c.3.2.8-.1.7-.4l-.5-3.3-.1-2.1zm-7-11.8c1.2 0 2.2.9 2.2 2.1s-1 2.1-2.2 2.1-2.2-1-2.2-2.1c0-1.2 1-2.1 2.2-2.1zm-5 9.5c0-2.6 2.2-4.8 5-4.8 2.7 0 5 2.1 5 4.8h-10z" fill="url(#G)"/></svg>