<svg xmlns="http://www.w3.org/2000/svg" xmlns:xlink="http://www.w3.org/1999/xlink" width="80" height="76" viewBox="0 0 60 57" xmlns:v="https://vecta.io/nano"><defs><linearGradient id="A" x1="17.419" y1="41.371" x2="19.355" y2="41.371" xlink:href="#Y"><stop offset="0" stop-color="rgb(0%,77.647059%,98.431373%)"/><stop offset="1" stop-color="rgb(0%,35.686275%,91.764706%)"/></linearGradient><linearGradient id="B" x1="9.677" y1="41.371" x2="11.613" y2="41.371" xlink:href="#Y"><stop offset="0" stop-color="rgb(0%,77.647059%,98.431373%)"/><stop offset="1" stop-color="rgb(0%,35.686275%,91.764706%)"/></linearGradient><linearGradient id="C" x1="13.548" y1="41.371" x2="15.484" y2="41.371" xlink:href="#Y"><stop offset="0" stop-color="rgb(0%,77.647059%,98.431373%)"/><stop offset="1" stop-color="rgb(0%,35.686275%,91.764706%)"/></linearGradient><linearGradient id="D" x1="0" y1="28.5" x2="60" y2="28.5" xlink:href="#Y"><stop offset="0" stop-color="rgb(0%,77.647059%,98.431373%)"/><stop offset="1" stop-color="rgb(0%,35.686275%,91.764706%)"/></linearGradient><linearGradient id="E" x1="37.742" y1="10.113" x2="53.226" y2="10.113" xlink:href="#Y"><stop offset="0" stop-color="rgb(0%,77.647059%,98.431373%)"/><stop offset="1" stop-color="rgb(0%,35.686275%,91.764706%)"/></linearGradient><linearGradient id="F" x1="11.613" y1="28.5" x2="13.548" y2="28.5" xlink:href="#Y"><stop offset="0" stop-color="rgb(0%,77.647059%,98.431373%)"/><stop offset="1" stop-color="rgb(0%,35.686275%,91.764706%)"/></linearGradient><linearGradient id="G" x1="7.742" y1="28.5" x2="9.677" y2="28.5" xlink:href="#Y"><stop offset="0" stop-color="rgb(0%,77.647059%,98.431373%)"/><stop offset="1" stop-color="rgb(0%,35.686275%,91.764706%)"/></linearGradient><linearGradient id="H" x1="3.871" y1="28.5" x2="5.807" y2="28.5" xlink:href="#Y"><stop offset="0" stop-color="rgb(0%,77.647059%,98.431373%)"/><stop offset="1" stop-color="rgb(0%,35.686275%,91.764706%)"/></linearGradient><linearGradient id="I" x1="3.871" y1="17.468" x2="13.548" y2="17.468" xlink:href="#Y"><stop offset="0" stop-color="rgb(0%,77.647059%,98.431373%)"/><stop offset="1" stop-color="rgb(0%,35.686275%,91.764706%)"/></linearGradient><linearGradient id="J" x1="19.355" y1="11.952" x2="29.032" y2="11.952" xlink:href="#Y"><stop offset="0" stop-color="rgb(0%,77.647059%,98.431373%)"/><stop offset="1" stop-color="rgb(0%,35.686275%,91.764706%)"/></linearGradient><linearGradient id="K" x1="19.355" y1="15.629" x2="21.29" y2="15.629" xlink:href="#Y"><stop offset="0" stop-color="rgb(0%,77.647059%,98.431373%)"/><stop offset="1" stop-color="rgb(0%,35.686275%,91.764706%)"/></linearGradient><linearGradient id="L" x1="23.226" y1="15.629" x2="29.032" y2="15.629" xlink:href="#Y"><stop offset="0" stop-color="rgb(0%,77.647059%,98.431373%)"/><stop offset="1" stop-color="rgb(0%,35.686275%,91.764706%)"/></linearGradient><linearGradient id="M" x1="19.355" y1="11.876" x2="29.032" y2="11.876" xlink:href="#Y"><stop offset="0" stop-color="rgb(0%,77.647059%,98.431373%)"/><stop offset="1" stop-color="rgb(0%,35.686275%,91.764706%)"/></linearGradient><linearGradient id="N" x1="19.355" y1="11.89" x2="29.032" y2="11.89" xlink:href="#Y"><stop offset="0" stop-color="rgb(0%,77.647059%,98.431373%)"/><stop offset="1" stop-color="rgb(0%,35.686275%,91.764706%)"/></linearGradient><linearGradient id="O" x1="19.355" y1="11.903" x2="29.032" y2="11.903" xlink:href="#Y"><stop offset="0" stop-color="rgb(0%,77.647059%,98.431373%)"/><stop offset="1" stop-color="rgb(0%,35.686275%,91.764706%)"/></linearGradient><linearGradient id="P" x1="19.355" y1="11.913" x2="29.032" y2="11.913" xlink:href="#Y"><stop offset="0" stop-color="rgb(0%,77.647059%,98.431373%)"/><stop offset="1" stop-color="rgb(0%,35.686275%,91.764706%)"/></linearGradient><linearGradient id="Q" x1="19.355" y1="11.926" x2="29.032" y2="11.926" xlink:href="#Y"><stop offset="0" stop-color="rgb(0%,77.647059%,98.431373%)"/><stop offset="1" stop-color="rgb(0%,35.686275%,91.764706%)"/></linearGradient><linearGradient id="R" x1="46.452" y1="32.177" x2="52.258" y2="32.177" xlink:href="#Y"><stop offset="0" stop-color="rgb(0%,77.647059%,98.431373%)"/><stop offset="1" stop-color="rgb(0%,35.686275%,91.764706%)"/></linearGradient><linearGradient id="S" x1="38.71" y1="32.177" x2="44.516" y2="32.177" xlink:href="#Y"><stop offset="0" stop-color="rgb(0%,77.647059%,98.431373%)"/><stop offset="1" stop-color="rgb(0%,35.686275%,91.764706%)"/></linearGradient><linearGradient id="T" x1="30.968" y1="32.177" x2="36.774" y2="32.177" xlink:href="#Y"><stop offset="0" stop-color="rgb(0%,77.647059%,98.431373%)"/><stop offset="1" stop-color="rgb(0%,35.686275%,91.764706%)"/></linearGradient><linearGradient id="U" x1="30.968" y1="22.984" x2="32.903" y2="22.984" xlink:href="#Y"><stop offset="0" stop-color="rgb(0%,77.647059%,98.431373%)"/><stop offset="1" stop-color="rgb(0%,35.686275%,91.764706%)"/></linearGradient><linearGradient id="V" x1="34.839" y1="22.984" x2="52.258" y2="22.984" xlink:href="#Y"><stop offset="0" stop-color="rgb(0%,77.647059%,98.431373%)"/><stop offset="1" stop-color="rgb(0%,35.686275%,91.764706%)"/></linearGradient><linearGradient id="W" x1="30.968" y1="26.661" x2="52.258" y2="26.661" xlink:href="#Y"><stop offset="0" stop-color="rgb(0%,77.647059%,98.431373%)"/><stop offset="1" stop-color="rgb(0%,35.686275%,91.764706%)"/></linearGradient><path id="X" d="M19.395 10.992h9.641v1.832h-9.641zm0 0"/><linearGradient id="Y" gradientUnits="userSpaceOnUse"/></defs><path d="M17.465 40.41h1.93v1.832h-1.93zm0 0" fill="url(#A)"/><path d="M9.645 40.41h1.926v1.832H9.645zm0 0" fill="url(#B)"/><path d="M13.5 40.41h1.93v1.832H13.5zm0 0" fill="url(#C)"/><path d="M57.105 0h-23.25c-1.605 0-2.891 1.223-2.891 2.75v4.578H8.68c-2.68 0-4.824 2.035-4.824 4.582v.914h-.961C1.285 12.824 0 14.047 0 15.574v3.766c0 1.527 1.285 2.746 2.895 2.746h.961v1.832h-.961C1.285 23.918 0 25.141 0 26.668v3.664c0 1.527 1.285 2.75 2.895 2.75h.961v8.242c0 2.547 2.145 4.582 4.824 4.582h13.5a5.45 5.45 0 0 1-2.25 3.664h-2.574c-2.676 0-4.82 2.035-4.82 4.578 0 1.527 1.285 2.75 2.895 2.75h29.035c1.605 0 2.891-1.223 2.891-2.75 0-2.543-2.141-4.578-4.82-4.578h-2.57a5.45 5.45 0 0 1-2.25-3.664h13.5c2.68 0 4.82-2.035 4.82-4.582v-21.07H57c1.605 0 2.895-1.219 2.895-2.746V2.75C60 1.223 58.715 0 57.105 0zM1.93 19.34v-3.664c0-.508.426-.918.965-.918h11.57c.535 0 .965.41.965.918v3.664c0 .508-.43.914-.965.914H2.895c-.539 0-.965-.406-.965-.914zm0 10.992v-3.664c0-.508.426-.918.965-.918h11.57c.535 0 .965.41.965.918v3.664c0 .508-.43.918-.965.918H2.895c-.539 0-.965-.41-.965-.918zM45.535 54.25c0 .512-.43.918-.965.918H15.535c-.535 0-.965-.406-.965-.918 0-1.523 1.285-2.746 2.895-2.746h25.18c1.5 0 2.891 1.223 2.891 2.746zm-8.25-4.578h-14.57c.855-1.02 1.285-2.34 1.391-3.664h11.68c.215 1.324.645 2.543 1.5 3.664zm14.035-5.496H8.68c-1.609 0-2.895-1.223-2.895-2.75V38.68h48.43v2.746c0 1.426-1.285 2.75-2.895 2.75zm2.895-7.43H5.785v-3.664h8.68c1.605 0 2.891-1.223 2.891-2.75v-3.664c0-1.527-1.285-2.75-2.891-2.75h-8.68v-1.832h8.68c1.605 0 2.891-1.219 2.891-2.746v-3.664c0-1.527-1.285-2.75-2.891-2.75h-8.68v-.914c0-1.629 1.285-2.852 2.895-2.852h22.285v8.246c0 1.527 1.285 2.746 2.891 2.746h20.359zm3.855-19.238c0 .508-.426.914-.965.914h-23.25c-.535 0-.961-.406-.961-.914V2.75c0-.512.426-.918.961-.918h23.25c.539 0 .965.406.965.918zm0 0" fill="url(#D)"/><path d="M51.75 8.043L41.355 3.867c-.32-.102-.641-.203-.961-.203-1.395 0-2.574 1.121-2.574 2.441v7.941c0 1.324 1.18 2.441 2.574 2.441.32 0 .641-.102.961-.203l10.395-4.172c.855-.406 1.5-1.223 1.5-2.137s-.645-1.629-1.5-1.934zM51 10.586l-10.395 4.172c-.426.203-.855-.102-.855-.609V6.105c0-.305.32-.609.645-.609h.211L51 9.668c.215.102.32.207.32.41s-.105.406-.32.508zm0 0" fill="url(#E)"/><path d="M11.57 27.582h1.93v1.836h-1.93zm0 0" fill="url(#F)"/><path d="M7.715 27.582h1.93v1.836h-1.93zm0 0" fill="url(#G)"/><path d="M3.855 27.582h1.93v1.836h-1.93zm0 0" fill="url(#H)"/><path d="M3.855 16.59H13.5v1.832H3.855zm0 0" fill="url(#I)"/><use xlink:href="#X" fill="url(#J)"/><path d="M19.395 14.758h1.926v1.832h-1.926zm0 0" fill="url(#K)"/><path d="M23.25 14.758h5.785v1.832H23.25zm0 0" fill="url(#L)"/><use xlink:href="#X" y="7.43" fill="url(#M)"/><use xlink:href="#X" y="11.094" fill="url(#N)"/><use xlink:href="#X" y="14.758" fill="url(#O)"/><use xlink:href="#X" y="18.426" fill="url(#P)"/><use xlink:href="#X" y="22.09" fill="url(#Q)"/><path d="M46.5 34.914h5.785v-5.496H46.5zm1.93-3.664h1.926v1.832H48.43zm0 0" fill="url(#R)"/><path d="M38.68 34.914h5.785v-5.496H38.68zm1.926-3.664h1.93v1.832h-1.93zm0 0" fill="url(#S)"/><path d="M30.965 34.914h5.785v-5.496h-5.785zm1.93-3.664h1.926v1.832h-1.926zm0 0" fill="url(#T)"/><path d="M30.965 22.086h1.93v1.832h-1.93zm0 0" fill="url(#U)"/><path d="M34.82 22.086h17.465v1.832H34.82zm0 0" fill="url(#V)"/><path d="M30.965 25.75h21.32v1.832h-21.32zm0 0" fill="url(#W)"/></svg>