<svg xmlns="http://www.w3.org/2000/svg" viewBox="0 0 60 59" xmlns:v="https://vecta.io/nano"><linearGradient id="A" gradientUnits="userSpaceOnUse" x1="1" y1="29.5" x2="59" y2="29.5"><stop offset="0" stop-color="#8360c3"/><stop offset="1" stop-color="#2ebf91"/></linearGradient><path d="M27.1 2.4V1.2a.94.94 0 0 1 1-1h.4 29.1c1.1 0 1.4.3 1.4 1.4v42.6c0 1.1-.3 1.4-1.4 1.4h-8.8-.5l.1 3.1v8.7.7h-1.9v-.6V48c0-3.5-2.1-5.8-5.6-6.2L35 41c-.4-.1-.6 0-.8.4l-7.9 16.5c-.2.5-.5.9-1.1.9s-.9-.4-1.2-.9l-8.7-16.5c-.3-.4-.5-.5-.9-.4l-6.6.9c-2.8.5-4.8 2.9-4.9 5.9v9.8.6H1v-.6-9.7c0-4.3 2.8-7.4 7-8l7.5-1.1c.3 0 .6-.3.8-.5.4-.7.7-1.4 1-2.1 0-.1 0-.3-.1-.4-1.5-1.6-2.5-3.5-3.1-5.6 0-.1-.3-.3-.4-.4-1.7-.3-2.9-1.3-3.5-2.9s-.2-3.1.9-4.5c.1-.1.2-.4.2-.5-.1-2.1-.3-4.1-.4-6.2-.2-3.7 1-6.9 3.5-9.5 3.3-3.5 7.5-4.6 12.2-4 .1.2.3.2.5.2zM57 43.7V2.2H29c-.2.6 0 .9.5 1 .2.1.5.2.7.3.6.3 1.1.6 1.8.3.3-.1.7-.1 1 0 1.8.3 3.1 1.4 4.1 2.9 1 1.6 1.4 3.4 1.5 5.2.2 3.3 0 6.5-.7 9.7-.1.3 0 .5.2.8 1.3 1.3 1.5 2.8 1 4.5s-1.7 2.7-3.4 3c-.4.1-.6.2-.7.6-.6 2-1.5 3.8-3 5.3-.1.1-.2.3-.1.4.4.8.7 1.5 1.2 2.2.1.2.5.4.7.5l6.9 1c2.6.3 4.8 1.4 6.3 3.6.1.1.4.2.6.2h5.9H57zM28.4 16.9c-1.3.6-2.6 1.2-3.9 1.7-2.6 1-5.4 1.4-8.2 1.3-.4 0-.5.1-.6.5l-.3 1.6c-.1.9-.3 1.1-1.2 1.1-1.5 0-2.7 1.5-2.3 3 .3 1.2 1.2 1.9 2.6 1.9.9 0 1.1.2 1.3 1.1.3 1.7 1 3.3 2.1 4.7 1.3 1.7 2.9 2.8 5.1 3.2 4.2.6 7.9-1.4 9.7-5.3.4-.8.6-1.7.9-2.6.2-.7.5-1 1.2-1 .3 0 .5 0 .8-.1 1.2-.3 2.1-1.4 1.9-2.6-.1-1.3-1.2-2.2-2.5-2.2-.8 0-1.1-.3-1.2-1-.1-.4-.2-.7-.2-1.1s-.2-.5-.6-.5c-1.7 0-3-.7-3.9-2.2-.2-.6-.4-1.1-.7-1.5zm-15.2 4.3c.4 0 .5-.1.6-.4.1-.7.3-1.3.5-2s.5-.9 1.2-.9h2.8c3.5-.2 6.7-1.2 9.6-3.1.9-.6 1.8-.3 2.3.8.2.6.5 1.2.8 1.7.5.8 1.2 1.2 2.1 1.2h1.2c.6 0 .9.3 1.1.8l.3 1.5c0 .1.1.2.2.3.1-.1.2-.2.2-.3.1-1 .3-2 .4-3 .2-2.7.3-5.4-.3-8.1-.2-1.2-.7-2.2-1.6-3-.7-.6-1.5-1-2.4-.8-.8.2-1.5.1-2.3-.3-3-1.5-6.1-1.9-9.4-.9-4.5 1.3-7.7 5.5-7.8 10.2 0 2.1.3 4.2.5 6.3zm11.9 34.6c.1-.3.2-.4.3-.6l2.4-5c.3-.6.8-1.2.7-1.7-.1-.6-.7-1-1.1-1.6-.7-.9-1.5-1.8-2.3-2.7l-3.6 4.5c-.1.1-.1.3 0 .4l3.6 6.7zm-8.2-15.3l3.5 6.5c1.1-1.3 2.1-2.6 3.2-3.9-2-1.1-3.9-2.2-5.3-4.1-.5.5-.9 1-1.4 1.5zm14.3-1.4c-.7.7-1.3 1.4-2 2.1s-1.6 1.2-2.4 1.8c.9 1.1 1.9 2.3 2.8 3.5l2.9-6c-.5-.5-.9-1-1.3-1.4zM20 37.9c.1.1.1.2.2.2 1.3 1.6 3.1 2.5 4.9 3.4.1.1.3 0 .5-.1 1-.7 2-1.4 3-2.2.5-.4.9-1 1.3-1.5l-.1-.1c-3.3 1.5-6.5 1.7-9.8.3z" fill="url(#A)"/><linearGradient id="B" gradientUnits="userSpaceOnUse" x1="41.569" y1="8.448" x2="56.098" y2="8.448"><stop offset="0" stop-color="#8360c3"/><stop offset="1" stop-color="#2ebf91"/></linearGradient><path d="M48.8 13.8h-6.1c-.8 0-1.2-.3-1.2-1.2V4.4c0-.9.3-1.2 1.2-1.2h12.2c.8 0 1.2.3 1.2 1.2v8.3c0 .8-.4 1.2-1.2 1.2l-6.1-.1zm5.3-2V5.1H43.6v6.7h10.5z" fill="url(#B)"/><linearGradient id="C" gradientUnits="userSpaceOnUse" x1="39.649" y1="32.622" x2="56.189" y2="32.622"><stop offset="0" stop-color="#8360c3"/><stop offset="1" stop-color="#2ebf91"/></linearGradient><path d="M56.2 36.9v2h-.6H41c-1.1 0-1.4-.3-1.4-1.4V26.9v-.6h1.9v10.6h14.7z" fill="url(#C)"/><linearGradient id="D" gradientUnits="userSpaceOnUse" x1="42.474" y1="31.517" x2="55.954" y2="31.517"><stop offset="0" stop-color="#8360c3"/><stop offset="1" stop-color="#2ebf91"/></linearGradient><path d="M52 30l-.4-.4-.3-1.6 2.9-.7c.4-.1.8.1 1 .6.3.9.5 1.9.8 2.9-.6.2-1.2.3-1.8.5-.1-.2-.2-.3-.2-.5l-1.9 3.1c-.7 1.1-1.1 1.2-2.2.4l-2.8-1.9-2.9 3.4-1.5-1.2 3.5-4.2c.4-.4.9-.4 1.4-.1l2.7 1.9c.1.1.3.2.5.3.2-.9.7-1.8 1.2-2.5z" fill="url(#D)"/><linearGradient id="E" gradientUnits="userSpaceOnUse" x1="39.691" y1="16.644" x2="56.057" y2="16.644"><stop offset="0" stop-color="#8360c3"/><stop offset="1" stop-color="#2ebf91"/></linearGradient><path d="M39.7 17.6v-1.9h16.4v1.9H39.7z" fill="url(#E)"/><linearGradient id="F" gradientUnits="userSpaceOnUse" x1="48.373" y1="19.525" x2="56.098" y2="19.525"><stop offset="0" stop-color="#8360c3"/><stop offset="1" stop-color="#2ebf91"/></linearGradient><path d="M56.1 20.5h-7.7v-1.9h.5 6.7c.4 0 .5.1.5.5v1.4z" fill="url(#F)"/><linearGradient id="G" gradientUnits="userSpaceOnUse" x1="42.593" y1="23.42" x2="44.448" y2="23.42"><stop offset="0" stop-color="#8360c3"/><stop offset="1" stop-color="#2ebf91"/></linearGradient><path d="M44.4 22.5v1.9h-1.9v-1.9h1.9z" fill="url(#G)"/><linearGradient id="H" gradientUnits="userSpaceOnUse" x1="45.492" y1="23.42" x2="47.356" y2="23.42"><stop offset="0" stop-color="#8360c3"/><stop offset="1" stop-color="#2ebf91"/></linearGradient><path d="M47.4 24.4h-1.9v-1.9h1.9v1.9z" fill="url(#H)"/><linearGradient id="I" gradientUnits="userSpaceOnUse" x1="48.381" y1="23.42" x2="50.257" y2="23.42"><stop offset="0" stop-color="#8360c3"/><stop offset="1" stop-color="#2ebf91"/></linearGradient><path d="M50.3 24.4h-1.9v-1.9h1.9v1.9z" fill="url(#I)"/><linearGradient id="J" gradientUnits="userSpaceOnUse" x1="51.272" y1="23.41" x2="53.16" y2="23.41"><stop offset="0" stop-color="#8360c3"/><stop offset="1" stop-color="#2ebf91"/></linearGradient><path d="M51.3 24.3v-1.9h1.9v1.9h-1.9z" fill="url(#J)"/><linearGradient id="K" gradientUnits="userSpaceOnUse" x1="54.178" y1="23.42" x2="56.058" y2="23.42"><stop offset="0" stop-color="#8360c3"/><stop offset="1" stop-color="#2ebf91"/></linearGradient><path d="M56.1 24.4h-1.9v-1.9h1.9v1.9z" fill="url(#K)"/></svg>