<?xml version="1.0" encoding="UTF-8"?>
<svg xmlns="http://www.w3.org/2000/svg" xmlns:xlink="http://www.w3.org/1999/xlink" width="60pt" height="57pt" viewBox="0 0 60 57" version="1.1">
<defs>
<linearGradient id="linear0" gradientUnits="userSpaceOnUse" x1="32.7291" y1="48.3117" x2="32.7291" y2="10.4749" gradientTransform="matrix(1.132075,0,0,1.14,0,0)">
<stop offset="0" style="stop-color:rgb(93.333333%,67.843137%,57.254902%);stop-opacity:1;"/>
<stop offset="1" style="stop-color:rgb(37.647059%,9.411765%,86.27451%);stop-opacity:1;"/>
</linearGradient>
<linearGradient id="linear1" gradientUnits="userSpaceOnUse" x1="21.2041" y1="39.527" x2="21.2041" y2="1.6883" gradientTransform="matrix(1.132075,0,0,1.14,0,0)">
<stop offset="0" style="stop-color:rgb(93.333333%,67.843137%,57.254902%);stop-opacity:1;"/>
<stop offset="1" style="stop-color:rgb(37.647059%,9.411765%,86.27451%);stop-opacity:1;"/>
</linearGradient>
</defs>
<g id="surface1">
<path style=" stroke:none;fill-rule:nonzero;fill:url(#linear0);" d="M 51.28125 11.96875 L 50.152344 11.96875 L 50.152344 30.550781 C 50.152344 36.59375 45.28125 41.496094 39.28125 41.496094 L 21.734375 41.496094 L 14.605469 46.054688 C 16.074219 47.765625 18.226562 48.792969 20.71875 48.792969 L 39.054688 48.792969 C 39.167969 48.90625 39.394531 49.019531 39.507812 49.132812 L 48.113281 54.71875 C 49.585938 55.746094 50.832031 55.0625 50.832031 53.238281 L 50.832031 48.792969 L 51.054688 48.792969 C 55.585938 48.792969 59.207031 45.144531 59.207031 40.585938 L 59.207031 20.179688 C 59.433594 15.617188 55.8125 11.96875 51.28125 11.96875 Z M 51.28125 11.96875 "/>
<path style=" stroke:none;fill-rule:nonzero;fill:url(#linear1);" d="M 39.28125 1.9375 L 8.71875 1.9375 C 4.1875 1.9375 0.566406 5.585938 0.566406 10.144531 L 0.566406 30.4375 C 0.566406 34.996094 4.1875 38.644531 8.71875 38.644531 L 9.054688 38.644531 L 9.054688 43.09375 C 9.054688 44.914062 10.300781 45.601562 11.773438 44.574219 L 20.378906 38.988281 C 20.605469 38.875 20.71875 38.761719 20.832031 38.644531 L 39.167969 38.644531 C 43.699219 38.644531 47.320312 34.996094 47.320312 30.4375 L 47.320312 10.144531 C 47.433594 5.585938 43.8125 1.9375 39.28125 1.9375 Z M 23.09375 33.515625 C 21.167969 33.515625 19.925781 32.148438 19.925781 30.210938 C 19.925781 28.273438 21.28125 26.902344 23.09375 26.902344 C 25.019531 26.902344 26.265625 28.273438 26.378906 30.210938 C 26.265625 32.035156 25.019531 33.515625 23.09375 33.515625 Z M 27.394531 18.695312 C 26.039062 20.179688 25.472656 21.660156 25.585938 23.257812 L 25.585938 23.941406 L 20.832031 23.941406 L 20.832031 23.027344 C 20.71875 21.203125 21.28125 19.265625 22.980469 17.328125 C 24.113281 15.960938 25.132812 14.820312 25.132812 13.566406 C 25.132812 12.3125 24.339844 11.398438 22.527344 11.398438 C 21.28125 11.398438 19.925781 11.855469 18.90625 12.539062 L 17.660156 8.550781 C 18.792969 7.636719 20.945312 6.839844 23.546875 6.839844 C 28.300781 6.839844 30.453125 9.460938 30.453125 12.539062 C 30.453125 15.277344 28.753906 17.101562 27.394531 18.695312 Z M 27.394531 18.695312 "/>
</g>
</svg>
