<svg xmlns="http://www.w3.org/2000/svg" viewBox="0 0 55 55" xmlns:v="https://vecta.io/nano"><linearGradient id="A" gradientUnits="userSpaceOnUse" x1="36.794" y1="54.5" x2="36.794" y2="29.092"><stop offset="0" stop-color="#d4145a"/><stop offset="1" stop-color="#fbb03b"/></linearGradient><path d="M47.3 54.5c3.9 0 7.2-3.2 7.2-7.2V29.1h-7.7c.1.4.2.8.4 1.1.4.7.6 1.6.7 2.4.1 1.6-.5 3.2-1.7 4.5-1.1 1.3-2.7 1.9-4.4 2h-.1c-1.6 0-3.2-.6-4.3-1.8-1.2-1.1-1.8-2.7-1.8-4.3 0-.9.2-1.8.6-2.6.2-.5.4-.9.5-1.3h-7.6v9.3c0 .2 0 .5-.1.7-.2.6-.8 1-1.5 1-1.6 0-2.9-.3-4.3-1-1.1-.5-2.4-.3-3.3.6-.6.6-.9 1.3-.9 2.1 0 .7.3 1.5 1 2s1.4.9 2.2.9c.4 0 .8-.1 1.2-.3 1.1-.6 2.5-.9 3.8-.9h.3c.7 0 1.3.4 1.5 1 .1.2.1.5.1.7v9.2l18.2.1h0z" fill="url(#A)"/><linearGradient id="B" gradientUnits="userSpaceOnUse" x1="41.74" y1="35.97" x2="41.74" y2=".5"><stop offset="0" stop-color="#d4145a"/><stop offset="1" stop-color="#fbb03b"/></linearGradient><path d="M47.3.5H29.1v7.7c.4-.1.8-.2 1.1-.4.7-.4 1.6-.6 2.4-.7 1.6-.1 3.2.5 4.5 1.7s1.9 2.8 2 4.4c0 1.6-.6 3.2-1.8 4.4-1.8 1.8-4.7 2.3-6.9 1.3-.5-.2-.9-.4-1.4-.5V26h9.4c.3 0 .6.1.9.2.5.3.7.8.7 1.4 0 1.6-.3 2.9-1 4.3-.2.4-.3.8-.3 1.3 0 .8.3 1.5.9 2.1s1.4.8 2.1.9c.7 0 1.5-.3 2-1s.9-1.4.9-2.2c0-.4-.1-.8-.3-1.2-.6-1.1-.9-2.5-.9-3.8v-.3a1.93 1.93 0 0 1 .3-1c.3-.4.8-.6 1.3-.6h9.4V7.7c.1-4-3.1-7.2-7.1-7.2z" fill="url(#B)"/><linearGradient id="C" gradientUnits="userSpaceOnUse" x1="18.206" y1="25.908" x2="18.206" y2=".5"><stop offset="0" stop-color="#d4145a"/><stop offset="1" stop-color="#fbb03b"/></linearGradient><path d="M7.7.5A7.17 7.17 0 0 0 .5 7.7v18.2h7.7c-.1-.4-.2-.7-.4-1.1-.4-.7-.6-1.6-.7-2.4-.1-1.6.5-3.2 1.7-4.5 1.1-1.3 2.7-1.9 4.4-2 1.5-.1 3.2.6 4.4 1.8 1.2 1.1 1.8 2.7 1.8 4.3 0 .9-.2 1.8-.6 2.6-.2.5-.4.9-.5 1.3h7.6v-9.3c0-.6.3-1.1.9-1.4.3-.2.6-.2.9-.2 1.5 0 2.8.3 4.1 1 1.1.5 2.4.3 3.3-.6.6-.6.9-1.3.9-2.1 0-.7-.3-1.5-1-2-.6-.6-1.4-.9-2.2-.9-.4 0-.8.1-1.2.3a8.49 8.49 0 0 1-3.8.9h-.3c-.3 0-.6-.1-.8-.2-.5-.3-.9-.8-.9-1.4V.5H7.7z" fill="url(#C)"/><linearGradient id="D" gradientUnits="userSpaceOnUse" x1="13.204" y1="54.5" x2="13.204" y2="19.144"><stop offset="0" stop-color="#d4145a"/><stop offset="1" stop-color="#fbb03b"/></linearGradient><path d="M7.7 54.5h18.2v-7.7c-.4.1-.7.2-1.1.4-.7.4-1.6.6-2.4.7-1.6.1-3.2-.5-4.5-1.7-1.3-1.1-1.9-2.7-2-4.4 0-1.6.6-3.2 1.8-4.4 1.8-1.8 4.7-2.3 6.9-1.3.5.2.9.4 1.3.5V29h-9.4c-.3.1-.6 0-.9-.2-.5-.3-.7-.9-.7-1.4 0-1.5.3-2.8 1-4.1.2-.4.3-.8.3-1.3 0-.8-.3-1.5-.9-2.1S14 19 13.2 19h0c-.7 0-1.5.3-2 1-.6.6-.9 1.4-.9 2.2 0 .4.1.8.3 1.2a8.49 8.49 0 0 1 .9 3.8v.2c0 .3-.1.7-.2 1-.3.5-.8.8-1.4.8h-.1H.5v18.2c0 3.9 3.2 7.1 7.2 7.1z" fill="url(#D)"/></svg>