<svg xmlns="http://www.w3.org/2000/svg" xmlns:xlink="http://www.w3.org/1999/xlink" width="80" height="78.667" viewBox="0 0 60 59" xmlns:v="https://vecta.io/nano"><defs><linearGradient id="A" x1="28.999" y1="35.457" x2="28.999" y2=".708" xlink:href="#F"><stop offset="0" stop-color="rgb(100%,3.137255%,26.666667%)"/><stop offset="1" stop-color="rgb(6.666667%,9.803922%,15.294118%)"/></linearGradient><linearGradient id="B" x1="49.707" y1="46.964" x2="49.707" y2="20.565" xlink:href="#F"><stop offset="0" stop-color="rgb(100%,3.137255%,26.666667%)"/><stop offset="1" stop-color="rgb(6.666667%,9.803922%,15.294118%)"/></linearGradient><linearGradient id="C" x1="24.97" y1="56.306" x2="24.97" y2="29.5" xlink:href="#F"><stop offset="0" stop-color="rgb(100%,3.137255%,26.666667%)"/><stop offset="1" stop-color="rgb(6.666667%,9.803922%,15.294118%)"/></linearGradient><linearGradient id="D" x1="37.419" y1="47.033" x2="37.419" y2="28.507" xlink:href="#F"><stop offset="0" stop-color="rgb(100%,3.137255%,26.666667%)"/><stop offset="1" stop-color="rgb(6.666667%,9.803922%,15.294118%)"/></linearGradient><linearGradient id="E" x1="41.06" y1="58.292" x2="41.06" y2="24.446" xlink:href="#F"><stop offset="0" stop-color="rgb(100%,3.137255%,26.666667%)"/><stop offset="1" stop-color="rgb(6.666667%,9.803922%,15.294118%)"/></linearGradient><linearGradient id="F" gradientUnits="userSpaceOnUse"/></defs><path d="M8.852 35.473c3.375 0 6.074-2.652 6.074-5.973 0-1.402-.527-2.73-1.352-3.762l5.324-6.047a5.99 5.99 0 0 0 3.152.887c1.574 0 3.148-.594 4.273-1.773l4.426 3.098c-.074.148-.148.223-.148.371-.227.516 0 1.105.523 1.328.148.07.227.07.375.07.375 0 .75-.219.977-.59.598-1.473 2.098-2.504 3.75-2.504 1.348.07 2.625.734 3.375 1.77.223.516.824.734 1.348.516s.75-.812.527-1.328c-.078-.074-.078-.148-.152-.297-.223-.293-.449-.66-.75-.883L46.5 12.02c.824.445 1.727.664 2.699.59 3.375 0 6.074-2.652 6.074-5.973S52.574.738 49.199.738s-6.074 2.652-6.074 5.898c0 1.551.602 3.098 1.727 4.203l-6.078 8.336c-2.324-1.105-5.098-.664-6.898 1.105l-4.426-3.098c.375-.812.602-1.695.602-2.582 0-3.316-2.699-5.973-6.074-5.973S15.9 11.283 15.9 14.6c0 1.402.527 2.73 1.352 3.762l-5.324 6.047c-2.852-1.695-6.602-.809-8.324 1.992a5.92 5.92 0 0 0 2.023 8.188 6.25 6.25 0 0 0 3.227.883zM49.199 2.73c2.25 0 4.051 1.77 4.051 3.98s-1.801 3.984-4.051 3.984-4.051-1.773-4.051-3.984 1.801-3.98 4.051-3.98zm-27.223 7.891c2.25 0 4.047 1.77 4.047 3.98s-1.797 3.984-4.047 3.984-4.051-1.77-4.051-3.984 1.801-3.98 4.051-3.98zM8.852 25.516c2.25 0 4.047 1.773 4.047 3.984s-1.797 3.984-4.047 3.984-4.051-1.773-4.051-3.984 1.801-3.984 4.051-3.984zm0 0" fill="url(#A)"/><path d="M54.227 46.98c.523 0 .973-.445.973-.961V21.535c0-.516-.449-.957-.973-.957h-9.078c-.523 0-.973.441-.973.957v1.918c0 .516.449.957.973.957s.977-.441.977-.957v-.961h7.125v23.453c0 .59.449 1.035.977 1.035zm0 0" fill="url(#B)"/><path d="M47.176 54.355h-.977v-2.363c0-.516-.449-.957-.973-.957s-.977.441-.977.957v2.363h-2.023v-.961c0-.516-.453-.957-.977-.957s-.977.441-.977.957v.961h-7.047v-.961c0-.516-.453-.957-.977-.957s-.977.441-.977.957v.961H29.25v-3.32c0-.516-.449-.957-.977-.957s-.973.441-.973.957v3.32H20.25V31.492h2.773c.527 0 .977-.445.977-.961s-.449-.957-.977-.957h-3.75c-.523 0-.973.441-.973.957v23.824h-2.027V38.422c0-.516-.449-.957-.973-.957H5.773c-.523 0-.973.441-.973.957v15.859H2.773c-.523 0-.973.441-.973.957s.449.961.973.961h44.402c.523 0 .973-.445.973-.961.078-.441-.375-.883-.973-.883zm-40.352 0V39.457h7.051v14.898zm0 0" fill="url(#C)"/><path d="M37.426 28.543c-5.176 0-9.449 4.129-9.449 9.289 0 5.09 4.199 9.293 9.449 9.293 5.176 0 9.449-4.129 9.449-9.293-.074-5.16-4.273-9.289-9.449-9.289zm0 16.52c-4.051 0-7.426-3.246-7.426-7.301s3.301-7.305 7.426-7.305 7.426 3.246 7.426 7.305-3.375 7.301-7.426 7.301zm0 0" fill="url(#D)"/><path d="M57.375 53.246l-5.023-4.941a3.03 3.03 0 0 0-3.375-.59l-1.352-1.324h-.074c4.875-5.531 4.273-13.941-1.352-18.734s-14.176-4.203-19.051 1.328-4.273 13.938 1.352 18.73c5.102 4.352 12.602 4.352 17.625 0v.074l1.352 1.328a2.9 2.9 0 0 0 .598 3.32l5.027 4.941c.523.59 1.348.883 2.098.883.824 0 1.574-.293 2.102-.883 1.199-1.109 1.273-2.953.074-4.133zm-20.023-4.277c-6.301 0-11.402-5.016-11.402-11.207s5.102-11.211 11.402-11.211S48.75 31.566 48.75 37.762s-5.102 11.207-11.398 11.207zm18.598 7.082a.96.96 0 0 1-1.348 0l-5.027-4.941c-.375-.371-.375-.961 0-1.328.152-.223.375-.297.676-.367.227 0 .523.07.676.293l5.023 4.941c.375.297.449.961 0 1.402.074-.074.074 0 0 0zm0 0" fill="url(#E)"/></svg>