<svg xmlns="http://www.w3.org/2000/svg" viewBox="0 0 62 62" xmlns:v="https://vecta.io/nano"><linearGradient id="A" gradientUnits="userSpaceOnUse" x1="24" y1="56.6" x2="26" y2="56.6"><stop offset="0" stop-color="#000046"/><stop offset="1" stop-color="#1cb5e0"/></linearGradient><path d="M24 55.6h2v2h-2z" fill="url(#A)"/><linearGradient id="B" gradientUnits="userSpaceOnUse" x1="20" y1="56.6" x2="22" y2="56.6"><stop offset="0" stop-color="#000046"/><stop offset="1" stop-color="#1cb5e0"/></linearGradient><path d="M20 55.6h2v2h-2z" fill="url(#B)"/><linearGradient id="C" gradientUnits="userSpaceOnUse" x1="16" y1="56.6" x2="18" y2="56.6"><stop offset="0" stop-color="#000046"/><stop offset="1" stop-color="#1cb5e0"/></linearGradient><path d="M16 55.6h2v2h-2z" fill="url(#C)"/><linearGradient id="D" gradientUnits="userSpaceOnUse" x1="34" y1="13" x2="61" y2="13"><stop offset="0" stop-color="#000046"/><stop offset="1" stop-color="#1cb5e0"/></linearGradient><path d="M60 6.6h-3.7l-5.7-3.8c-.2-.1-.4-.2-.6-.2h-5c-.3 0-.5.1-.7.3L43 4.2c-2.4-1.7-5-3-7.8-3.7-.3-.1-.6 0-.9.2-.2.1-.3.4-.3.7v23.2a.94.94 0 0 0 1 1h17a.94.94 0 0 0 1-1v-1c0-.7 0-1.3-.1-2H60a.94.94 0 0 0 1-1v-13a.94.94 0 0 0-1-1zm-9 17H36V2.7c2.4.8 4.5 2 6.5 3.5a23.22 23.22 0 0 1 4.6 4.8c.6.8 1.1 1.7 1.5 2.5H45c-1.1 0-2.1.4-2.8 1.2-.8.8-1.2 1.8-1.2 2.8 0 2.2 1.8 4 4 4h5.9c.1.8.1 1.4.1 2.1zm8-4h-7.2H45c-1.1 0-2-.9-2-2 0-.5.2-1 .6-1.4s.9-.6 1.4-.6h5.2H52c.4 0 .8-.2.9-.6.2-.4.1-.8-.2-1.1l-4.1-4.1a24.09 24.09 0 0 0-4-4.4l.8-.8h4.3l5.7 3.8c.2.1.4.2.6.2h3v11z" fill="url(#D)"/><linearGradient id="E" gradientUnits="userSpaceOnUse" x1="1" y1="32.6" x2="54" y2="32.6"><stop offset="0" stop-color="#000046"/><stop offset="1" stop-color="#1cb5e0"/></linearGradient><path d="M7 60.6a.94.94 0 0 0 1 1h23a.94.94 0 0 0 1-1v-3h1 9a4.95 4.95 0 0 0 5-5v-8h6c.3 0 .6-.2.8-.4s.2-.6.1-.9L49 30.4v-1.8a.94.94 0 0 0-1-1H32V5.4c0-.5-.3-.8-.7-1-2-.6-4.2-.8-6.3-.8-13.2 0-24 10.8-24 24v6.5C1 39.7 3.1 45 7 49v11.6zM3 34.1v-6.5c0-12.1 9.9-22 22-22a20.74 20.74 0 0 1 5 .6v22.4a.94.94 0 0 0 1 1h16v1c0 .1 0 .2.1.4l4.5 11.6H46a.94.94 0 0 0-1 1v4.9c-2.3-.5-4-2.5-4-4.9h-2c0 3.5 2.6 6.4 6 6.9v2.1c0 1.7-1.3 3-3 3h-9-2-3v2h2v2H9v-11c0-.3-.1-.5-.3-.7A19.36 19.36 0 0 1 3 34.1z" fill="url(#E)"/><linearGradient id="F" gradientUnits="userSpaceOnUse" x1="26" y1="28.6" x2="28" y2="28.6"><stop offset="0" stop-color="#000046"/><stop offset="1" stop-color="#1cb5e0"/></linearGradient><path d="M26 27.6h2v2h-2z" fill="url(#F)"/><linearGradient id="G" gradientUnits="userSpaceOnUse" x1="26" y1="24.6" x2="28" y2="24.6"><stop offset="0" stop-color="#000046"/><stop offset="1" stop-color="#1cb5e0"/></linearGradient><path d="M26 23.6h2v2h-2z" fill="url(#G)"/><linearGradient id="H" gradientUnits="userSpaceOnUse" x1="22" y1="24.6" x2="24" y2="24.6"><stop offset="0" stop-color="#000046"/><stop offset="1" stop-color="#1cb5e0"/></linearGradient><path d="M22 23.6h2v2h-2z" fill="url(#H)"/><linearGradient id="I" gradientUnits="userSpaceOnUse" x1="26" y1="20.6" x2="28" y2="20.6"><stop offset="0" stop-color="#000046"/><stop offset="1" stop-color="#1cb5e0"/></linearGradient><path d="M26 19.6h2v2h-2z" fill="url(#I)"/><linearGradient id="J" gradientUnits="userSpaceOnUse" x1="26" y1="16.6" x2="28" y2="16.6"><stop offset="0" stop-color="#000046"/><stop offset="1" stop-color="#1cb5e0"/></linearGradient><path d="M26 15.6h2v2h-2z" fill="url(#J)"/><linearGradient id="K" gradientUnits="userSpaceOnUse" x1="22" y1="16.6" x2="24" y2="16.6"><stop offset="0" stop-color="#000046"/><stop offset="1" stop-color="#1cb5e0"/></linearGradient><path d="M22 15.6h2v2h-2z" fill="url(#K)"/><linearGradient id="L" gradientUnits="userSpaceOnUse" x1="26" y1="12.6" x2="28" y2="12.6"><stop offset="0" stop-color="#000046"/><stop offset="1" stop-color="#1cb5e0"/></linearGradient><path d="M26 11.6h2v2h-2z" fill="url(#L)"/><linearGradient id="M" gradientUnits="userSpaceOnUse" x1="26" y1="8.6" x2="28" y2="8.6"><stop offset="0" stop-color="#000046"/><stop offset="1" stop-color="#1cb5e0"/></linearGradient><path d="M26 7.6h2v2h-2z" fill="url(#M)"/><linearGradient id="N" gradientUnits="userSpaceOnUse" x1="21" y1="8.6" x2="23" y2="8.6"><stop offset="0" stop-color="#000046"/><stop offset="1" stop-color="#1cb5e0"/></linearGradient><path d="M21 7.6h2v2h-2z" fill="url(#N)"/><linearGradient id="O" gradientUnits="userSpaceOnUse" x1="26" y1="32.6" x2="28" y2="32.6"><stop offset="0" stop-color="#000046"/><stop offset="1" stop-color="#1cb5e0"/></linearGradient><path d="M26 31.6h2v2h-2z" fill="url(#O)"/><linearGradient id="P" gradientUnits="userSpaceOnUse" x1="26" y1="36.6" x2="28" y2="36.6"><stop offset="0" stop-color="#000046"/><stop offset="1" stop-color="#1cb5e0"/></linearGradient><path d="M26 35.6h2v2h-2z" fill="url(#P)"/><linearGradient id="Q" gradientUnits="userSpaceOnUse" x1="22" y1="32.6" x2="24" y2="32.6"><stop offset="0" stop-color="#000046"/><stop offset="1" stop-color="#1cb5e0"/></linearGradient><path d="M22 31.6h2v2h-2z" fill="url(#Q)"/><linearGradient id="R" gradientUnits="userSpaceOnUse" x1="30" y1="32.6" x2="32" y2="32.6"><stop offset="0" stop-color="#000046"/><stop offset="1" stop-color="#1cb5e0"/></linearGradient><path d="M30 31.6h2v2h-2z" fill="url(#R)"/><linearGradient id="S" gradientUnits="userSpaceOnUse" x1="34" y1="32.6" x2="36" y2="32.6"><stop offset="0" stop-color="#000046"/><stop offset="1" stop-color="#1cb5e0"/></linearGradient><path d="M34 31.6h2v2h-2z" fill="url(#S)"/><linearGradient id="T" gradientUnits="userSpaceOnUse" x1="34" y1="36.6" x2="36" y2="36.6"><stop offset="0" stop-color="#000046"/><stop offset="1" stop-color="#1cb5e0"/></linearGradient><path d="M34 35.6h2v2h-2z" fill="url(#T)"/><linearGradient id="U" gradientUnits="userSpaceOnUse" x1="38" y1="32.6" x2="40" y2="32.6"><stop offset="0" stop-color="#000046"/><stop offset="1" stop-color="#1cb5e0"/></linearGradient><path d="M38 31.6h2v2h-2z" fill="url(#U)"/><linearGradient id="V" gradientUnits="userSpaceOnUse" x1="42" y1="32.6" x2="44" y2="32.6"><stop offset="0" stop-color="#000046"/><stop offset="1" stop-color="#1cb5e0"/></linearGradient><path d="M42 31.6h2v2h-2z" fill="url(#V)"/><linearGradient id="W" gradientUnits="userSpaceOnUse" x1="42" y1="36.6" x2="44" y2="36.6"><stop offset="0" stop-color="#000046"/><stop offset="1" stop-color="#1cb5e0"/></linearGradient><path d="M42 35.6h2v2h-2z" fill="url(#W)"/></svg>