<svg xmlns="http://www.w3.org/2000/svg" viewBox="0 0 68 54" xmlns:v="https://vecta.io/nano"><linearGradient id="A" gradientUnits="userSpaceOnUse" x1="23.957" y1="18.654" x2="67" y2="18.654"><stop offset="0" stop-color="#00b09b"/><stop offset="1" stop-color="#96c93d"/></linearGradient><path d="M62.5 1H28.4C26 1 24 3 24 5.5v8.8c.5.2 1.1.4 1.7.5 0 0 .2.1.9-.1V10h26.8c.8 0 .8 0 .8-.8v-2c0-.5.1-.7.6-.7h6.9c.5 0 .7.2.6.7v2.2c0 .4.2.6.5.5h1.7v20.9c-.2 1.7-1.2 2.8-3 2.8H29.8c-2.1 0-3.3-1.1-3.3-3.3V25c-.1 0-.2 0-.3.1-.2 0-.5.1-.7.1-.5 0-1-.1-1.5-.2v6.7c0 2.2 1.6 4.1 3.8 4.4.7.1 15.4.1 22 .2h7c2 0 3.9.1 5.7 0 2.5-.2 4.4-2.1 4.4-4.5L67 5.6c0-2.5-2-4.5-4.5-4.6zM28.7 7.7c-.9 0-1.8-.8-1.8-1.7s.8-1.7 1.8-1.7c.9 0 1.8.9 1.8 1.7s-.9 1.7-1.8 1.7zm5.5 0c-.9 0-1.8-.8-1.7-1.9 0-.9.8-1.7 1.7-1.7 1 0 1.8.8 1.8 1.7-.1 1.2-.9 1.9-1.8 1.9zm5.4 0c-.9 0-1.8-.8-1.8-1.7s.8-1.7 1.8-1.7c.9 0 1.8.9 1.8 1.7.1.8-.8 1.7-1.8 1.7z" fill="url(#A)"/><linearGradient id="B" gradientUnits="userSpaceOnUse" x1="1" y1="33.725" x2="36.394" y2="33.725"><stop offset="0" stop-color="#00b09b"/><stop offset="1" stop-color="#96c93d"/></linearGradient><path d="M25.9 22.8c2.8-.3 5.6-1 8.8-2.2 1.2-.4 2-1.8 1.6-3-.3-1.3-1.4-2.2-2.7-2.2a2.39 2.39 0 0 0-.9.2c-2.1.7-3.9 1.1-5.5 1.5-.8.2-1.4.2-1.9.2-1.9-.3-3.5-1.1-4.9-1.9-.3-.2-.9-.4-1.4-.5l-2.4-.2c-.5-.1-1-.1-1.6-.1h-.4-.2-.1c-.2.1-.4.2-.5.4 0 .1-.1.1-.1.2s-.3.8-.5 1.8l-1.1 3.7-.3-2c-.1-.2-.1-.4-.1-.6V18v-.1l-.1-.3c0-.2-.1-.3-.1-.3.1-.1.1-.3.2-.4s.1-.2.1-.2l.1-.1c.1-.1.1-.3.1-.4s-.2-.6-.2-.7c-.1-.1-.2-.2-.3-.2h-.1-.1-.8-.8-.1 0c-.1.1-.2.1-.3.2s-.1.1-.1.3c-.1.3-.1.3-.1.4 0 .2.1.3.1.4l.1.1c.1.1.1.2.1.3.1.1.1.2.2.4 0 .1 0 .2-.1.3v.3.1c-.1.5-.2 1.1-.2 1.7l-.1 1c-.3-1.2-.8-2.7-1.2-3.8l-.6-1.9c-.1-.2-.1-.3-.2-.4s-.2-.2-.3-.2h-.2c-.2 0-.5.1-1.1.3l-.3.2c-.2 0-.3.1-.3.1l-2.5.8-.1.1c-.7.2-1.1.7-1.1 1.4 0 .2-.1.5-.1 1L1 19.6v10c0 .7.2 1.4.4 2.1a8 8 0 0 0 1.3 2.1l.1.1c.2 0 .2.2.3.3 0 .3 0 .5.1.8v.3l.2 5.4c0 .2 0 .3.1.4v6.2c0 1.9.7 3.4 2 4.5 1 .8 2.3 1.3 3.8 1.3h1.4H12c3 0 5.3-1.9 5.7-4.7.1-.3.1-.7.1-1v-1.6l.6-18.1.2-6.2c0-.2.1-.4.1-.6v-.1c.4.2.8.3 1.1.4l.2.1 2.7 1 .3.1c.8.3 1.7.5 2.6.5.1-.1.2-.1.3-.1z" fill="url(#B)"/><linearGradient id="C" gradientUnits="userSpaceOnUse" x1="4.869" y1="6.745" x2="16.356" y2="6.745"><stop offset="0" stop-color="#00b09b"/><stop offset="1" stop-color="#96c93d"/></linearGradient><path d="M10.6 12.4c3 .1 5.8-2.7 5.8-5.7.1-3.1-2.6-5.7-5.7-5.7S4.9 3.6 4.9 6.7c-.1 2.9 2.6 5.7 5.7 5.7z" fill="url(#C)"/><linearGradient id="D" gradientUnits="userSpaceOnUse" x1="52.561" y1="27.517" x2="55.022" y2="27.517"><stop offset="0" stop-color="#00b09b"/><stop offset="1" stop-color="#96c93d"/></linearGradient><path d="M55 27.5c0-.5-.4-.9-.9-.9h-1.5v1.9h1.5c.5-.1.9-.5.9-1z" fill="url(#D)"/><linearGradient id="E" gradientUnits="userSpaceOnUse" x1="35.716" y1="27.49" x2="50.92" y2="27.49"><stop offset="0" stop-color="#00b09b"/><stop offset="1" stop-color="#96c93d"/></linearGradient><path d="M35.7 27.5c0 .5.4.9.9.9H49v.4c0 .5.4.9.9.9s.9-.4.9-.9v-2.7c0-.5-.4-.9-.9-.9s-.9.4-.9.9v.4H36.6c-.4 0-.9.5-.9 1z" fill="url(#E)"/><linearGradient id="F" gradientUnits="userSpaceOnUse" x1="41.076" y1="18.74" x2="49.663" y2="18.74"><stop offset="0" stop-color="#00b09b"/><stop offset="1" stop-color="#96c93d"/></linearGradient><path d="M41.9 23.5c.1 0 .3-.1.4-.1l6.9-4c.3-.1.4-.4.4-.7s-.2-.5-.4-.7l-7.1-4c-.2-.1-.5-.1-.8.1-.2.2-.4.4-.4.7v8c0 .3.2.5.4.7h.6z" fill="url(#F)"/></svg>