<svg xmlns="http://www.w3.org/2000/svg" xmlns:xlink="http://www.w3.org/1999/xlink" width="78.667" height="78.667" viewBox="0 0 59 59" xmlns:v="https://vecta.io/nano"><defs><linearGradient id="A" x1=".492" y1="29.851" x2="58.508" y2="29.851" xlink:href="#O"><stop offset="0" stop-color="rgb(41.176471%,100%,59.215686%)"/><stop offset="1" stop-color="rgb(0%,89.411765%,100%)"/></linearGradient><linearGradient id="B" x1="29.536" y1="42.534" x2="54.883" y2="42.534" xlink:href="#O"><stop offset="0" stop-color="rgb(41.176471%,100%,59.215686%)"/><stop offset="1" stop-color="rgb(0%,89.411765%,100%)"/></linearGradient><linearGradient id="C" x1="41.285" y1="39.801" x2="45.817" y2="39.801" xlink:href="#O"><stop offset="0" stop-color="rgb(41.176471%,100%,59.215686%)"/><stop offset="1" stop-color="rgb(0%,89.411765%,100%)"/></linearGradient><linearGradient id="D" x1="5.91" y1="15.779" x2="47.63" y2="15.779" xlink:href="#O"><stop offset="0" stop-color="rgb(41.176471%,100%,59.215686%)"/><stop offset="1" stop-color="rgb(0%,89.411765%,100%)"/></linearGradient><linearGradient id="E" x1="5.931" y1="31.19" x2="7.744" y2="31.19" xlink:href="#O"><stop offset="0" stop-color="rgb(41.176471%,100%,59.215686%)"/><stop offset="1" stop-color="rgb(0%,89.411765%,100%)"/></linearGradient><linearGradient id="F" x1="10.463" y1="29.83" x2="12.276" y2="29.83" xlink:href="#O"><stop offset="0" stop-color="rgb(41.176471%,100%,59.215686%)"/><stop offset="1" stop-color="rgb(0%,89.411765%,100%)"/></linearGradient><linearGradient id="G" x1="14.996" y1="28.017" x2="16.809" y2="28.017" xlink:href="#O"><stop offset="0" stop-color="rgb(41.176471%,100%,59.215686%)"/><stop offset="1" stop-color="rgb(0%,89.411765%,100%)"/></linearGradient><linearGradient id="H" x1="19.528" y1="29.83" x2="21.341" y2="29.83" xlink:href="#O"><stop offset="0" stop-color="rgb(41.176471%,100%,59.215686%)"/><stop offset="1" stop-color="rgb(0%,89.411765%,100%)"/></linearGradient><linearGradient id="I" x1="24.061" y1="28.017" x2="25.874" y2="28.017" xlink:href="#O"><stop offset="0" stop-color="rgb(41.176471%,100%,59.215686%)"/><stop offset="1" stop-color="rgb(0%,89.411765%,100%)"/></linearGradient><linearGradient id="J" x1="28.593" y1="25.297" x2="30.407" y2="25.297" xlink:href="#O"><stop offset="0" stop-color="rgb(41.176471%,100%,59.215686%)"/><stop offset="1" stop-color="rgb(0%,89.411765%,100%)"/></linearGradient><linearGradient id="K" x1="33.126" y1="23.031" x2="34.939" y2="23.031" xlink:href="#O"><stop offset="0" stop-color="rgb(41.176471%,100%,59.215686%)"/><stop offset="1" stop-color="rgb(0%,89.411765%,100%)"/></linearGradient><linearGradient id="L" x1="37.659" y1="22.578" x2="39.472" y2="22.578" xlink:href="#O"><stop offset="0" stop-color="rgb(41.176471%,100%,59.215686%)"/><stop offset="1" stop-color="rgb(0%,89.411765%,100%)"/></linearGradient><linearGradient id="M" x1="42.191" y1="20.765" x2="44.004" y2="20.765" xlink:href="#O"><stop offset="0" stop-color="rgb(41.176471%,100%,59.215686%)"/><stop offset="1" stop-color="rgb(0%,89.411765%,100%)"/></linearGradient><linearGradient id="N" x1="46.724" y1="20.312" x2="48.537" y2="20.312" xlink:href="#O"><stop offset="0" stop-color="rgb(41.176471%,100%,59.215686%)"/><stop offset="1" stop-color="rgb(0%,89.411765%,100%)"/></linearGradient><linearGradient id="O" gradientUnits="userSpaceOnUse"/></defs><path d="M53.102 30.387V3.539c0-1.473-1.18-2.754-2.754-2.754H3.246C1.77.785.492 1.965.492 3.539v32.648c0 1.473 1.18 2.754 2.754 2.754h23.105c-2.062 8.75 3.445 17.5 12.195 19.566 8.75 1.969 17.504-3.539 19.566-12.293.297-1.18.395-2.457.395-3.734 0-4.621-1.965-9.047-5.406-12.094zM3.246 37.07a.88.88 0 0 1-.887-.883V3.539a.88.88 0 0 1 .887-.883h47.102c.492 0 .883.391.883.883V28.91c-7.473-5.016-17.602-2.949-22.617 4.523-.785 1.082-1.375 2.359-1.77 3.637zm38.938 19.965c-7.965 0-14.453-6.492-14.453-14.457a14.48 14.48 0 0 1 14.453-14.453c7.965 0 14.457 6.488 14.457 14.453S50.25 57.035 42.184 57.035zm0 0" fill="url(#A)"/><path d="M53.199 48.773a12.52 12.52 0 0 0 0-12.586v-.098c0-.102 0 0-.098-.102-1.082-1.867-2.656-3.441-4.523-4.523l-.102-.098c-.098-.098 0 0-.098 0a12.52 12.52 0 0 0-12.586 0h-.098c-.098 0 0 0-.098.098-1.871 1.082-3.441 2.656-4.523 4.523l-.098.102c-.102.098 0 0 0 .098a12.52 12.52 0 0 0 0 12.586v.098s0 .098.098.098a12.43 12.43 0 0 0 4.523 4.523l.098.098h.098c3.836 2.164 8.652 2.164 12.488 0h.098l.098-.098a12.4 12.4 0 0 0 4.523-4.523c.199 0 .199-.098.199-.195 0 .098 0 .098 0 0zm-4.82 2.656l-.391-.789c-.297-.391-.789-.59-1.281-.293s-.59.785-.293 1.277l.395.688c-1.184.59-2.461.984-3.738 1.082v-.883c0-.492-.395-.887-.887-.887a.88.88 0 0 0-.883.887v.883c-1.277-.098-2.559-.492-3.738-.984l.395-.687c.293-.395.098-.984-.297-1.277s-.98-.098-1.277.293l-.395.789a12.26 12.26 0 0 1-2.75-2.754l.785-.395c.395-.293.59-.785.293-1.277-.293-.395-.785-.59-1.277-.293l-.687.391c-.59-1.18-.887-2.457-.984-3.734h.887a.88.88 0 1 0 0-1.773h-.887c.098-1.277.492-2.555.984-3.734l.688.395c.395.293.984.098 1.277-.297s.102-.984-.293-1.277l-.785-.395a12.26 12.26 0 0 1 2.75-2.754l.395.789c.297.391.789.59 1.277.293.395-.293.59-.785.297-1.277l-.395-.687c1.18-.59 2.461-.887 3.738-.984v.887a.88.88 0 0 0 .883.883c.492 0 .887-.395.887-.883v-.887c1.277.098 2.555.492 3.738.984l-.395.688c-.297.395-.098.984.293 1.277s.984.098 1.281-.293l.391-.789a12.2 12.2 0 0 1 2.754 2.754l-.785.395c-.395.293-.59.785-.297 1.277.297.395.789.59 1.277.297l.691-.395c.59 1.18.98 2.457 1.082 3.734h-.984c-.492 0-.887.395-.887.887s.395.887.887.887h.984c-.102 1.277-.492 2.555-.984 3.734l-.789-.391c-.391-.297-.98-.102-1.277.293s-.098.984.297 1.277l.785.395c-.785.984-1.672 1.965-2.754 2.656zm0 0" fill="url(#B)"/><path d="M44.938 41.594h-1.77V37.07a.88.88 0 0 0-.883-.883c-.492 0-.984.391-.984.883v5.41c0 .492.391.883.883.883h2.754a.88.88 0 0 0 .887-.883c0-.492-.395-.887-.887-.887zm0 0" fill="url(#C)"/><path d="M36.188 16.914c.293.293.785.293 1.18 0l8.457-7.672v1.574a.88.88 0 0 0 .883.887c.492 0 .887-.395.887-.887V7.18c0-.492-.395-.887-.887-.887H43.07c-.492 0-.887.395-.887.887a.88.88 0 0 0 .887.883h1.375l-7.668 6.984-3.934-3.148a.77.77 0 0 0-1.082 0l-10.422 7.77-4.031-3.148c-.297-.293-.789-.293-1.082 0l-9.934 7.18a.93.93 0 0 0-.195 1.277c.195.195.492.395.785.395a.74.74 0 0 0 .492-.199l9.441-6.883 4.031 3.148c.293.293.785.293 1.082 0l10.324-7.672zm0 0" fill="url(#D)"/><path d="M6.883 28.91a.88.88 0 0 0-.883.887v2.75c-.102.492.293.887.883.887s.887-.395.887-.887v-2.75c0-.492-.395-.887-.887-.887zm0 0" fill="url(#E)"/><path d="M11.406 26.156a.88.88 0 0 0-.883.887v5.406a.88.88 0 0 0 .883.887c.492 0 .887-.395.887-.887v-5.406c0-.395-.395-.887-.887-.887zm0 0" fill="url(#F)"/><path d="M15.93 22.617a.88.88 0 0 0-.883.883v9.047a.88.88 0 0 0 .883.887c.492 0 .887-.395.887-.887V23.5c0-.488-.395-.883-.887-.883zm0 0" fill="url(#G)"/><path d="M20.453 26.156c-.492 0-.887.395-.887.887v5.406c0 .492.395.887.887.887s.887-.395.887-.887v-5.406c0-.395-.395-.887-.887-.887zm0 0" fill="url(#H)"/><path d="M24.977 22.617c-.492 0-.887.395-.887.883v9.047c0 .492.395.887.887.887s.887-.395.887-.887V23.5c0-.488-.395-.883-.887-.883zm0 0" fill="url(#I)"/><path d="M29.5 20.75a.88.88 0 0 0-.887.883v7.277c0 .492.395.887.887.887s.887-.395.887-.887v-7.277a.88.88 0 0 0-.887-.883zm0 0" fill="url(#J)"/><path d="M34.023 19.863c-.492 0-.887.395-.887.887v4.523c0 .488.395.883.887.883s.887-.395.887-.883V20.75c0-.492-.395-.887-.887-.887zm0 0" fill="url(#K)"/><path d="M38.547 20.75a.88.88 0 0 0-.887.883v1.77c0 .492.395.887.887.887s.887-.395.887-.887v-1.77a.88.88 0 0 0-.887-.883zm0 0" fill="url(#L)"/><path d="M43.07 17.109c-.492 0-.887.395-.887.887v5.406c0 .492.395.887.887.887a.88.88 0 0 0 .883-.887v-5.406a.88.88 0 0 0-.883-.887zm0 0" fill="url(#M)"/><path d="M46.707 16.227v8.16c0 .492.395.887.887.887a.88.88 0 0 0 .883-.887v-8.16a.88.88 0 0 0-.883-.887c-.492 0-.887.395-.887.887zm0 0" fill="url(#N)"/></svg>