<svg xmlns="http://www.w3.org/2000/svg" viewBox="0 0 55 57" xmlns:v="https://vecta.io/nano"><linearGradient id="A" gradientUnits="userSpaceOnUse" x1="5.997" y1="55.359" x2="5.997" y2="45.159"><stop offset="0" stop-color="#de4313"/><stop offset="1" stop-color="#fec163"/></linearGradient><path d="M2.1,45.2c-0.6,0-1.1,0.5-1.1,1.1v8c0,0.6,0.5,1.1,1.1,1.1h7.8c0.6,0,1.1-0.5,1.1-1.1v-8    c0-0.6-0.5-1.1-1.1-1.1H2.1z" fill="url(#A)"/><linearGradient id="B" gradientUnits="userSpaceOnUse" x1="19.919" y1="55.359" x2="19.919" y2="39.852"><stop offset="0" stop-color="#de4313"/><stop offset="1" stop-color="#fec163"/></linearGradient><path d="M16 39.9a1.11 1.11 0 0 0-1.1 1.1v13.3a1.11 1.11 0 0 0 1.1 1.1h7.8a1.11 1.11 0 0 0 1.1-1.1V41a1.11 1.11 0 0 0-1.1-1.1H16z" fill="url(#B)"/><linearGradient id="C" gradientUnits="userSpaceOnUse" x1="34.185" y1="55.29" x2="34.185" y2="33.166"><stop offset="0" stop-color="#de4313"/><stop offset="1" stop-color="#fec163"/></linearGradient><path d="M30.3,33.2c-0.6,0-1.1,0.5-1.1,1.1v19.9c0,0.6,0.5,1.1,1.1,1.1h7.8c0.6,0,1.1-0.5,1.1-1.1V34.3    c0-0.6-0.5-1.1-1.1-1.1H30.3z" fill="url(#C)"/><linearGradient id="D" gradientUnits="userSpaceOnUse" x1="49.003" y1="55.359" x2="49.003" y2="24.276"><stop offset="0" stop-color="#de4313"/><stop offset="1" stop-color="#fec163"/></linearGradient><path d="M52.9 24.3h-7.8a1.11 1.11 0 0 0-1.1 1.1v28.9a1.11 1.11 0 0 0 1.1 1.1h7.8a1.11 1.11 0 0 0 1.1-1.1V25.4a1.11 1.11 0 0 0-1.1-1.1z" fill="url(#D)"/><linearGradient id="E" gradientUnits="userSpaceOnUse" x1="27.433" y1="38.818" x2="27.433" y2="1.641"><stop offset="0" stop-color="#de4313"/><stop offset="1" stop-color="#fec163"/></linearGradient><path d="M53.4 17.2l-3.8-15c-.1-.2-.2-.3-.3-.5-.2-.1-.4-.1-.6-.1L33.4 7c-.3.1-.5.3-.5.6s.1.6.4.7l4.3 2.2c-3.4 5.4-14.8 20-35.6 26.9-.3.1-.6.5-.5.9.1.3.4.6.7.6h.1c.3-.1 31-5.9 44.8-23.4l5.2 2.6c.3.1.6.1.8-.1.2-.3.3-.5.3-.8z" fill="url(#E)"/></svg>