<svg xmlns="http://www.w3.org/2000/svg" fill-rule="evenodd" height="49" image-rendering="optimizeQuality" shape-rendering="geometricPrecision" viewBox="0 0 0.98 0.98" width="49" xmlns:v="https://vecta.io/nano"><linearGradient id="A" gradientUnits="userSpaceOnUse" x1=".13" x2=".85" y1=".49" y2=".49"><stop offset="0" stop-color="#3e4095"/><stop offset="1" stop-color="#46b653"/></linearGradient><circle cx=".49" cy=".49" fill="#fefefe" r=".49"/><path d="M.16.51V.49.48h.01V.46h.01V.45h.01L.21.43h.01.01.01.01L.26.41V.39.38.37L.27.35.28.33C.29.32.29.31.3.31V.3h.01L.32.28h.01L.34.27.35.26h.01.01L.39.25h.02.01.01.01.01.01.01l.01.01h.01.01l.01.01.02.02h.01V.3h.01v.01l.01.01.01.01.01.02v.01h.01.02V.35h.01.02.01l.02.01v.01l.01.02v.02.01.01C.69.44.7.44.7.43h.01.01.01.01.02s.01.01.02.01h.01v.01H.8l.01.02.01.02V.5c.01.01.01.01.01.02L.82.54v.01C.82.56.81.57.81.57L.8.58.79.59.77.6C.76.61.76.61.75.61H.66V.56h.01.03L.71.54.69.52.67.51.65.5V.49H.64V.48H.63L.61.46H.6.58L.56.47v.01L.54.49.52.51.51.52.49.53.48.55.52.56h.01v.09.01.01.01h.01.01L.54.7H.53v.01L.49.73.48.72.45.7C.44.69.44.69.43.69.43.68.44.69.45.68V.66.65.64.62L.44.61H.27.24.23L.21.6H.2L.19.58H.18V.57C.17.56.16.55.16.54V.51zM.42.22H.41.4L.38.23H.37L.35.24.33.25.32.26H.31.3v.01H.29v.01L.28.29V.3L.26.32.25.34v.01L.24.36v.01.01.01C.22.4.22.4.22.41H.21.2L.18.42v.01H.17L.16.44.15.46.14.48v.01L.13.52v.01.01l.01.01v.01.01l.01.01.02.02.01.01.02.01.01.01h.01.01.01.01.17.01v.01.01.01H.42.39.38v.01.01l.01.01.03.02c.01.01.01.01.02.01v.01l.04.02.02.01.03-.03h.01L.56.72V.71L.57.7h.01C.6.69.6.68.6.68.61.66.6.66.6.66H.59.56.55V.65h.01V.54H.55C.55.53.54.53.53.53L.56.51.58.5.59.49.6.48v.01h.01l.02.02h.01v.01h.01v.01h.01-.02v.01L.63.58v.04l.02.01h.09.01.01.02L.79.62H.8L.81.61.82.6.83.58.84.56.85.54V.52.5C.85.49.85.48.84.48V.47.46H.83L.82.44.8.42H.79L.77.41.75.4H.74.72C.71.4.71.39.71.38L.7.37V.36H.69L.68.34.66.33H.65.64V.32C.63.32.63.32.62.33H.61C.59.33.59.32.59.32V.31L.58.3.56.28.55.27.53.26V.25H.52L.51.24C.5.24.5.24.49.23H.48.47.46L.44.22H.42z" fill="url(#A)"/></svg>