<?xml version="1.0" encoding="utf-8"?>
<!-- Generator: Adobe Illustrator 24.0.2, SVG Export Plug-In . SVG Version: 6.00 Build 0)  -->
<svg version="1.1" id="Layer_1" xmlns="http://www.w3.org/2000/svg" xmlns:xlink="http://www.w3.org/1999/xlink" x="0px" y="0px"
	 width="25.7px" height="30.8px" viewBox="0 0 25.7 30.8" style="enable-background:new 0 0 25.7 30.8;" xml:space="preserve">
<style type="text/css">
	.st0{fill:#094969;}
</style>
<path class="st0" d="M0,0v24.1c0,3.1,2,5.7,4.7,6.7c-0.1-0.1-0.1-0.1-0.2-0.2c-0.4-0.7-0.6-1.4-0.6-2.3c0-0.3,0-0.6,0-0.9
	c0-1.2,0-2.6,0-3.8c0-1.5,0.6-2.7,1.9-3.7c0.4-0.3,0.9-0.6,1.4-0.7c0.2,0,0.3-0.1,0.5-0.1c0.9,0,1.9,0,2.9,0c0.1,0,0.1,0,0.2,0
	c0,1.1-0.1,2.3-0.4,3.3c-0.2,0-0.3,0-0.4,0c-0.2,0-0.4,0.1-0.6,0.1C9,22.7,8.6,23,8.2,23.3c-0.2,0.3-0.4,0.6-0.3,0.9
	c0,0.9,0,1.8,0,2.7c0,0.2,0,0.4,0.1,0.5c0.1,0.3,0.2,0.7,0.4,1c0.3,0.4,0.6,0.6,1.1,0.7c0.1,0,0.3,0,0.4,0c2.1,0,4.1,0,6.2,0
	c0.3,0,0.6,0,0.8-0.1c0.6-0.2,0.9-0.7,1-1.3c0-0.1,0-0.2,0-0.3c0-0.1,0-0.1,0-0.2c0-0.9,0-1.9,0-2.8c0-0.5-0.1-1-0.5-1.4
	c-0.4-0.5-1-0.7-1.6-0.7c-0.2,0-0.4,0-0.6,0c-0.1,0-0.2,0-0.3,0c0.7-1,1.3-2.2,1.8-3.3c0.5,0,1-0.1,1.4,0.1c1.3,0.3,2.3,1,3,2.2
	c0.3,0.5,0.4,1.1,0.5,1.8c0,0.3,0,0.6,0,0.9c0,1.1,0,2.3,0,3.3c0,0.3,0,0.7,0,1c0,0.9-0.2,1.6-0.6,2.3c2.7-1,4.6-3.6,4.6-6.6V0H0z
	 M7.9,6.4c1.2-1.3,3.3-1.3,4.5,0s1.1,3.6-0.2,4.8c-1.5,1.3-3.8,0.9-4.7-0.9c-0.2-0.5-0.4-1-0.4-1.5C7,7.8,7.3,7,7.9,6.4 M16.9,14.7
	c-0.1,1.5-0.4,3.1-0.9,4.6c-0.8,2.2-2.3,3.9-4.2,5.3c-0.5,0.3-1,0.6-1.6,0.8c-0.1,0-0.2,0-0.3,0.1c0.1-0.1,0.1-0.2,0.2-0.3
	c0.5-1,0.9-2.1,1.2-3.1c0.4-1.6,0.4-3.3,0-4.9c-0.6-2-1.9-3.2-3.9-3.8c-0.1,0-0.2-0.1-0.3-0.1c0.1-0.1,0.2-0.1,0.3-0.2
	c0.5-0.2,1-0.3,1.5-0.2c0.7,0.1,1.3,0.3,2.1,0.5c0.5,0.2,0.9,0.3,1.4,0.5C12.7,14,13,14,13.3,14c0.4,0,0.7-0.2,0.9-0.5
	c0.2-0.3,0.3-0.5,0.4-0.8c0.1-0.5,0.1-1.1,0.1-1.6c0-1.3-0.3-2.8-0.7-4.1c-0.3-1.3-0.8-2.6-1.3-3.8c0-0.1-0.1-0.1-0.1-0.2l0,0
	c0.1-0.1,0.2,0,0.3,0.1c1.6,2,2.8,4.1,3.5,6.6C16.8,11.2,17,13,16.9,14.7"/>
</svg>
