<?xml version="1.0" encoding="utf-8"?>
<!-- Generator: Adobe Illustrator 24.0.2, SVG Export Plug-In . SVG Version: 6.00 Build 0)  -->
<svg version="1.1" id="Layer_1" xmlns="http://www.w3.org/2000/svg" xmlns:xlink="http://www.w3.org/1999/xlink" x="0px" y="0px"
	 width="55px" height="55px" viewBox="0 0 55 55" style="enable-background:new 0 0 55 55;" xml:space="preserve">
<style type="text/css">
	.st0{fill:#FFFFFF;}
	.st1{fill:url(#SVGID_1_);}
</style>
<circle class="st0" cx="27.5" cy="27.5" r="27"/>
<linearGradient id="SVGID_1_" gradientUnits="userSpaceOnUse" x1="13.7804" y1="28.4934" x2="41.0883" y2="28.4934" gradientTransform="matrix(1 0 0 -1 0 56)">
	<stop  offset="0" style="stop-color:#00B09B"/>
	<stop  offset="1" style="stop-color:#96C93F"/>
</linearGradient>
<path class="st1" d="M40.7,27.3L38,23.1C33.7-0.7,1.6,17.5,19.1,34.2c0.4,1.7-1.3,8.2,1.7,8.3c0.2,0,9.4,0.9,9.6,0.8
	c2.8,0.1,1.7-4.3,1.9-5.9c6,0.6,5.9-1.6,5.7-6.7C40.3,31.1,41.9,29.4,40.7,27.3z M39.2,28.7c0,0.4-1.7,0.1-1.9,0.2
	c-2.2-0.1-1,4.6-1.3,5.7c0,0.5-0.4,0.9-0.9,0.9c-6.1-0.5-4.6,1.2-4.8,6l-9.5-0.8c1.2-11.5-4.3-7.5-4.9-16.9
	c-0.3-12.5,19.3-13.5,20.1-0.9c-0.1,1,2.7,4.7,3.2,5.6C39.2,28.5,39.2,28.6,39.2,28.7z M27.3,17.9c-0.2-2.6-4.1-0.4-1.9,1.1v10.3
	c-2.8,3.1,4.1,3.1,1.3,0V19C27,18.9,27.3,18.4,27.3,17.9z M22.4,19.9c1.1-0.5,0.7-2.4-0.6-2.4c-1.2-0.1-1.8,1.8-0.6,2.4v2.3H23v1.6
	h-2.7c-0.5-1.1-2.4-0.7-2.4,0.6c-0.1,1.3,1.8,1.7,2.4,0.6H23v1.6h-1.8v2.3c-2.8,3,4,3.1,1.2,0v-1.1h1.8v-6.5h-1.8
	C22.4,21,22.4,19.9,22.4,19.9z M32.8,22.9c-0.5,0-0.9,0.3-1.1,0.6h-2.7V22h1.8v-2.3c2.8-3-4-3.1-1.2,0v1.1h-1.8v6.4h1.8v1.1
	c-2.8,3,4,2.9,1.2,0V26h-1.8v-1.6h2.7C33,26.5,35.7,23.2,32.8,22.9z"/>
</svg>
