<?xml version="1.0" encoding="utf-8"?>
<!-- Generator: Adobe Illustrator 24.0.2, SVG Export Plug-In . SVG Version: 6.00 Build 0)  -->
<svg version="1.1" id="Layer_1" xmlns="http://www.w3.org/2000/svg" xmlns:xlink="http://www.w3.org/1999/xlink" x="0px" y="0px"
	 width="55px" height="55px" viewBox="0 0 55 55" style="enable-background:new 0 0 55 55;" xml:space="preserve">
<style type="text/css">
	.st0{fill:#FFFFFF;}
	.st1{fill-rule:evenodd;clip-rule:evenodd;fill:url(#SVGID_1_);}
</style>
<circle class="st0" cx="27.5" cy="27.5" r="27"/>
<linearGradient id="SVGID_1_" gradientUnits="userSpaceOnUse" x1="10.6822" y1="27.5" x2="44.3178" y2="27.5">
	<stop  offset="0" style="stop-color:#FD1D1D"/>
	<stop  offset="1" style="stop-color:#FCB045"/>
</linearGradient>
<path class="st1" d="M27.5,12.5c-9.1,0-16.8,7.4-16.8,16.6c0,4.9,2,9.2,5.2,12.4c1.2,1.2,3,1.2,4.4,0.2c1.8-1.5,4.4-2.4,7.2-2.4
	s5.2,0.8,7.2,2.4c1.3,1,3.2,0.8,4.4-0.3c3.2-3,5.2-7.4,5.2-12.3C44.1,20.1,36.7,12.5,27.5,12.5 M27.3,37.7c-4.9,0-8.4-3.7-8.4-8.4
	s3.4-8.4,8.4-8.4s8.4,3.9,8.4,8.4S32.4,37.7,27.3,37.7"/>
</svg>
